<?xml version="1.0" encoding="utf-8"?>
<!-- Generator: Adobe Illustrator 27.5.0, SVG Export Plug-In . SVG Version: 6.00 Build 0)  -->
<svg version="1.1" xmlns="http://www.w3.org/2000/svg" xmlns:xlink="http://www.w3.org/1999/xlink" x="0px" y="0px"
	 viewBox="0 0 750 500" style="enable-background:new 0 0 750 500;" xml:space="preserve">
<g id="BACKGROUND">
	<rect style="fill:#FFF6F6;" width="750" height="500"/>
</g>
<g id="OBJECTS">
	<g>
		<g>
			<defs>
				<rect id="SVGID_1_" width="750" height="500"/>
			</defs>
			<clipPath id="SVGID_00000169525205019251013510000003208838612253071012_">
				<use xlink:href="#SVGID_1_"  style="overflow:visible;"/>
			</clipPath>
			<g style="clip-path:url(#SVGID_00000169525205019251013510000003208838612253071012_);">
				<path style="fill:#BD5FB5;" d="M346.268,410.606L346.268,410.606c-12.89,0-23.339,10.449-23.339,23.339v0l0,0
					c0,12.89,10.449,23.339,23.339,23.339l0,0l0,0c12.89,0,23.339-10.449,23.339-23.339l0,0v0
					C369.606,421.055,359.157,410.606,346.268,410.606L346.268,410.606z"/>
				<path style="fill:#FFB001;" d="M552.228,0h-148.26c0,40.94,33.188,74.13,74.13,74.13S552.228,40.94,552.228,0z"/>
				<g>
					<path style="fill:none;stroke:#0F0F0F;stroke-width:2;stroke-miterlimit:10;" d="M214.48,32.995c0,0,49.941,0,124.852,0
						c37.456,0,81.154,0,127.973,0c11.705,0,23.605,0,35.651,0c3.011,0,6.032,0,9.061,0c1.515,0,3.031,0,4.55,0h2.279h1.141
						c0.397,0.003,0.945,0.034,1.411,0.053c7.759,0.167,15.577,2.027,22.653,5.459c7.083,3.42,13.428,8.377,18.49,14.451
						c5.025,6.104,8.736,13.336,10.752,21.043l0.73,2.897l0.468,2.948c0.135,0.985,0.326,1.968,0.398,2.958l0.161,2.976l0.218,4.337
						c-0.021,1.138,0.267,2.23,0.401,3.346c0.764,4.417,2.495,8.672,5.132,12.331c5.21,7.358,13.643,12.395,22.608,13.056
						l1.687,0.079l0.842,0.052l0.211,0.015h0.291h0.583h4.656c3.102,0,6.2,0,9.294,0c6.188,0,12.357,0,18.502,0
						c24.581,0,48.771,0,72.181,0c46.819,0,90.518,0,127.974,0c74.911,0,124.852,0,124.852,0"/>
					<path style="fill:none;stroke:#0F0F0F;stroke-width:2;stroke-miterlimit:10;" d="M214.48,38.995c0,0,49.941,0,124.852,0
						c37.456,0,81.154,0,127.973,0c11.705,0,23.605,0,35.651,0c3.011,0,6.032,0,9.061,0c1.515,0,3.031,0,4.55,0h2.279h1.141
						c0.389,0.003,0.853,0.034,1.276,0.051c6.923,0.15,13.874,1.808,20.175,4.862c6.307,3.045,11.965,7.462,16.479,12.874
						c4.477,5.442,7.778,11.884,9.572,18.743l0.656,2.578l0.411,2.628c0.119,0.878,0.297,1.751,0.358,2.634l0.14,2.654l0.227,4.502
						c-0.007,1.351,0.308,2.663,0.479,3.992c0.916,5.278,2.996,10.366,6.134,14.733c6.195,8.78,16.284,14.777,26.993,15.58
						l2.007,0.098c0.669,0.035,1.306,0.087,2.128,0.07h4.656c3.102,0,6.2,0,9.294,0c6.188,0,12.357,0,18.502,0
						c24.581,0,48.771,0,72.181,0c46.819,0,90.518,0,127.974,0c74.911,0,124.852,0,124.852,0"/>
					<path style="fill:none;stroke:#0F0F0F;stroke-width:2;stroke-miterlimit:10;" d="M214.48,44.995c0,0,49.941,0,124.852,0
						c37.456,0,81.154,0,127.973,0c11.705,0,23.605,0,35.651,0c6.022,0.023,12.084-0.05,18.172,0.05
						c6.086,0.133,12.171,1.587,17.698,4.265c5.531,2.67,10.501,6.547,14.468,11.298c3.93,4.781,6.82,10.431,8.393,16.443
						l0.581,2.259l0.354,2.307c0.103,0.771,0.268,1.534,0.319,2.311l0.118,2.332c0.184,3.108,0.187,6.236,0.794,9.306
						c1.068,6.14,3.496,12.061,7.135,17.137c7.181,10.202,18.927,17.159,31.377,18.102c1.554,0.06,3.103,0.201,4.657,0.191h4.656
						c3.102,0,6.2,0,9.294,0c6.188,0,12.357,0,18.502,0c24.581,0,48.771,0,72.181,0c46.819,0,90.518,0,127.974,0
						c74.911,0,124.852,0,124.852,0"/>
					<path style="fill:none;stroke:#0F0F0F;stroke-width:2;stroke-miterlimit:10;" d="M214.48,50.995c0,0,49.941,0,124.852,0
						c37.456,0,81.154,0,127.973,0c11.705,0,23.605,0,35.651,0c3.011,0,6.032,0,9.061,0c1.515,0,3.031,0,4.55,0h2.279h1.141
						c0.372,0.003,0.667,0.033,1.005,0.048c5.25,0.116,10.468,1.366,15.221,3.668c4.754,2.294,9.038,5.631,12.458,9.721
						c3.382,4.121,5.863,8.979,7.213,14.144l0.506,1.939l0.297,1.985c0.086,0.663,0.238,1.318,0.28,1.988l0.096,2.011l0.245,4.832
						c0.021,1.776,0.39,3.525,0.637,5.283c1.22,7.002,3.997,13.756,8.136,19.541c4.107,5.804,9.467,10.703,15.615,14.267
						c6.137,3.579,13.086,5.79,20.147,6.359l2.649,0.137c0.884,0.044,1.797,0.094,2.529,0.077h4.656c3.102,0,6.2,0,9.294,0
						c6.188,0,12.357,0,18.502,0c24.581,0,48.771,0,72.181,0c46.819,0,90.518,0,127.974,0c74.911,0,124.852,0,124.852,0"/>
					<path style="fill:none;stroke:#0F0F0F;stroke-width:2;stroke-miterlimit:10;" d="M214.48,56.995c0,0,49.941,0,124.852,0
						c37.456,0,81.154,0,127.973,0c11.705,0,23.605,0,35.651,0c3.011,0,6.032,0,9.061,0c1.515,0,3.031,0,4.55,0h2.279h1.141
						c0.363,0.003,0.575,0.033,0.87,0.047c4.414,0.099,8.765,1.146,12.744,3.07c3.979,1.919,7.574,4.716,10.447,8.144
						c2.834,3.46,4.904,7.526,6.033,11.845l0.432,1.62l0.24,1.664c0.071,0.556,0.21,1.103,0.241,1.664l0.075,1.689l0.253,4.998
						c0.036,1.989,0.43,3.956,0.716,5.929c1.372,7.863,4.497,15.45,9.136,21.943c4.607,6.515,10.618,12.01,17.521,16.01
						c6.889,4.016,14.703,6.498,22.625,7.141l2.971,0.156l1.484,0.065l0.371,0.015h0.291h0.583h4.656c3.102,0,6.2,0,9.294,0
						c6.188,0,12.357,0,18.502,0c24.581,0,48.771,0,72.181,0c46.819,0,90.518,0,127.974,0c74.911,0,124.852,0,124.852,0"/>
				</g>
				<g>
					<g>
						<g>
							<g>
								<g>
									<g>
										<g>
											<g>
												<g>
													<path style="fill:#41376B;" d="M246.168,433.945c0,1.949-1.581,3.53-3.53,3.53c-1.95,0-3.53-1.581-3.53-3.53
														c0-1.95,1.58-3.53,3.53-3.53C244.588,430.415,246.168,431.995,246.168,433.945z"/>
												</g>
											</g>
										</g>
									</g>
								</g>
								<g>
									<g>
										<g>
											<g>
												<g>
													<path style="fill:#41376B;" d="M260.037,433.945c0,1.949-1.58,3.53-3.53,3.53s-3.53-1.581-3.53-3.53
														c0-1.95,1.581-3.53,3.53-3.53S260.037,431.995,260.037,433.945z"/>
												</g>
											</g>
										</g>
									</g>
								</g>
								<g>
									<g>
										<g>
											<g>
												<g>
													<path style="fill:#41376B;" d="M273.905,433.945c0,1.949-1.581,3.53-3.53,3.53c-1.949,0-3.53-1.581-3.53-3.53
														c0-1.95,1.581-3.53,3.53-3.53C272.325,430.415,273.905,431.995,273.905,433.945z"/>
												</g>
											</g>
										</g>
									</g>
								</g>
								<g>
									<g>
										<g>
											<g>
												<g>
													<path style="fill:#41376B;" d="M287.774,433.945c0,1.949-1.581,3.53-3.53,3.53c-1.95,0-3.53-1.581-3.53-3.53
														c0-1.95,1.581-3.53,3.53-3.53C286.193,430.415,287.774,431.995,287.774,433.945z"/>
												</g>
											</g>
										</g>
									</g>
								</g>
								<g>
									<g>
										<g>
											<g>
												<g>
													<path style="fill:#41376B;" d="M301.642,433.945c0,1.949-1.58,3.53-3.53,3.53s-3.53-1.581-3.53-3.53
														c0-1.95,1.581-3.53,3.53-3.53S301.642,431.995,301.642,433.945z"/>
												</g>
											</g>
										</g>
									</g>
								</g>
								<g>
									<g>
										<g>
											<g>
												<g>
													<path style="fill:#41376B;" d="M315.511,433.945c0,1.949-1.581,3.53-3.53,3.53c-1.95,0-3.53-1.581-3.53-3.53
														c0-1.95,1.581-3.53,3.53-3.53C313.93,430.415,315.511,431.995,315.511,433.945z"/>
												</g>
											</g>
										</g>
									</g>
								</g>
								<g>
									<g>
										<g>
											<g>
												<g>
													<path style="fill:#41376B;" d="M329.379,433.945c0,1.949-1.58,3.53-3.53,3.53c-1.95,0-3.53-1.581-3.53-3.53
														c0-1.95,1.581-3.53,3.53-3.53C327.799,430.415,329.379,431.995,329.379,433.945z"/>
												</g>
											</g>
										</g>
									</g>
								</g>
								<g>
									<g>
										<g>
											<g>
												<g>
													<path style="fill:#41376B;" d="M343.248,433.945c0,1.949-1.581,3.53-3.53,3.53c-1.95,0-3.53-1.581-3.53-3.53
														c0-1.95,1.581-3.53,3.53-3.53C341.667,430.415,343.248,431.995,343.248,433.945z"/>
												</g>
											</g>
										</g>
									</g>
								</g>
								<g>
									<g>
										<g>
											<g>
												<g>
													<path style="fill:#41376B;" d="M357.116,433.945c0,1.949-1.581,3.53-3.53,3.53c-1.949,0-3.53-1.581-3.53-3.53
														c0-1.95,1.581-3.53,3.53-3.53C355.536,430.415,357.116,431.995,357.116,433.945z"/>
												</g>
											</g>
										</g>
									</g>
								</g>
								<g>
									<g>
										<g>
											<g>
												<g>
													<path style="fill:#41376B;" d="M370.985,433.945c0,1.949-1.581,3.53-3.53,3.53c-1.95,0-3.53-1.581-3.53-3.53
														c0-1.95,1.581-3.53,3.53-3.53C369.404,430.415,370.985,431.995,370.985,433.945z"/>
												</g>
											</g>
										</g>
									</g>
								</g>
								<g>
									<g>
										<g>
											<g>
												<g>
													<path style="fill:#41376B;" d="M384.853,433.945c0,1.949-1.581,3.53-3.53,3.53c-1.95,0-3.53-1.581-3.53-3.53
														c0-1.95,1.58-3.53,3.53-3.53C383.273,430.415,384.853,431.995,384.853,433.945z"/>
												</g>
											</g>
										</g>
									</g>
								</g>
							</g>
						</g>
						<g>
							<g>
								<g>
									<g>
										<g>
											<g>
												<g>
													<path style="fill:#41376B;" d="M246.168,449.31c0,1.95-1.581,3.53-3.53,3.53c-1.95,0-3.53-1.58-3.53-3.53
														c0-1.95,1.58-3.53,3.53-3.53C244.588,445.78,246.168,447.36,246.168,449.31z"/>
												</g>
											</g>
										</g>
									</g>
								</g>
								<g>
									<g>
										<g>
											<g>
												<g>
													<path style="fill:#41376B;" d="M260.037,449.31c0,1.95-1.58,3.53-3.53,3.53s-3.53-1.58-3.53-3.53
														c0-1.95,1.581-3.53,3.53-3.53S260.037,447.36,260.037,449.31z"/>
												</g>
											</g>
										</g>
									</g>
								</g>
								<g>
									<g>
										<g>
											<g>
												<g>
													<path style="fill:#41376B;" d="M273.905,449.31c0,1.95-1.581,3.53-3.53,3.53c-1.949,0-3.53-1.58-3.53-3.53
														c0-1.95,1.581-3.53,3.53-3.53C272.325,445.78,273.905,447.36,273.905,449.31z"/>
												</g>
											</g>
										</g>
									</g>
								</g>
								<g>
									<g>
										<g>
											<g>
												<g>
													<path style="fill:#41376B;" d="M287.774,449.31c0,1.95-1.581,3.53-3.53,3.53c-1.95,0-3.53-1.58-3.53-3.53
														c0-1.95,1.581-3.53,3.53-3.53C286.193,445.78,287.774,447.36,287.774,449.31z"/>
												</g>
											</g>
										</g>
									</g>
								</g>
								<g>
									<g>
										<g>
											<g>
												<g>
													<path style="fill:#41376B;" d="M301.642,449.31c0,1.95-1.58,3.53-3.53,3.53s-3.53-1.58-3.53-3.53
														c0-1.95,1.581-3.53,3.53-3.53S301.642,447.36,301.642,449.31z"/>
												</g>
											</g>
										</g>
									</g>
								</g>
								<g>
									<g>
										<g>
											<g>
												<g>
													<path style="fill:#41376B;" d="M315.511,449.31c0,1.95-1.581,3.53-3.53,3.53c-1.95,0-3.53-1.58-3.53-3.53
														c0-1.95,1.581-3.53,3.53-3.53C313.93,445.78,315.511,447.36,315.511,449.31z"/>
												</g>
											</g>
										</g>
									</g>
								</g>
								<g>
									<g>
										<g>
											<g>
												<g>
													<path style="fill:#41376B;" d="M329.379,449.31c0,1.95-1.58,3.53-3.53,3.53c-1.95,0-3.53-1.58-3.53-3.53
														c0-1.95,1.581-3.53,3.53-3.53C327.799,445.78,329.379,447.36,329.379,449.31z"/>
												</g>
											</g>
										</g>
									</g>
								</g>
								<g>
									<g>
										<g>
											<g>
												<g>
													<path style="fill:#41376B;" d="M343.248,449.31c0,1.95-1.581,3.53-3.53,3.53c-1.95,0-3.53-1.58-3.53-3.53
														c0-1.95,1.581-3.53,3.53-3.53C341.667,445.78,343.248,447.36,343.248,449.31z"/>
												</g>
											</g>
										</g>
									</g>
								</g>
								<g>
									<g>
										<g>
											<g>
												<g>
													<path style="fill:#41376B;" d="M357.116,449.31c0,1.95-1.581,3.53-3.53,3.53c-1.949,0-3.53-1.58-3.53-3.53
														c0-1.95,1.581-3.53,3.53-3.53C355.536,445.78,357.116,447.36,357.116,449.31z"/>
												</g>
											</g>
										</g>
									</g>
								</g>
								<g>
									<g>
										<g>
											<g>
												<g>
													<path style="fill:#41376B;" d="M370.985,449.31c0,1.95-1.581,3.53-3.53,3.53c-1.95,0-3.53-1.58-3.53-3.53
														c0-1.95,1.581-3.53,3.53-3.53C369.404,445.78,370.985,447.36,370.985,449.31z"/>
												</g>
											</g>
										</g>
									</g>
								</g>
								<g>
									<g>
										<g>
											<g>
												<g>
													<path style="fill:#41376B;" d="M384.853,449.31c0,1.95-1.581,3.53-3.53,3.53c-1.95,0-3.53-1.58-3.53-3.53
														c0-1.95,1.58-3.53,3.53-3.53C383.273,445.78,384.853,447.36,384.853,449.31z"/>
												</g>
											</g>
										</g>
									</g>
								</g>
							</g>
						</g>
						<g>
							<g>
								<g>
									<g>
										<g>
											<g>
												<g>
													<path style="fill:#41376B;" d="M246.168,464.675c0,1.949-1.581,3.53-3.53,3.53c-1.95,0-3.53-1.581-3.53-3.53
														c0-1.95,1.58-3.53,3.53-3.53C244.588,461.145,246.168,462.725,246.168,464.675z"/>
												</g>
											</g>
										</g>
									</g>
								</g>
								<g>
									<g>
										<g>
											<g>
												<g>
													<path style="fill:#41376B;" d="M260.037,464.675c0,1.949-1.58,3.53-3.53,3.53s-3.53-1.581-3.53-3.53
														c0-1.95,1.581-3.53,3.53-3.53S260.037,462.725,260.037,464.675z"/>
												</g>
											</g>
										</g>
									</g>
								</g>
								<g>
									<g>
										<g>
											<g>
												<g>
													<path style="fill:#41376B;" d="M273.905,464.675c0,1.949-1.581,3.53-3.53,3.53c-1.949,0-3.53-1.581-3.53-3.53
														c0-1.95,1.581-3.53,3.53-3.53C272.325,461.145,273.905,462.725,273.905,464.675z"/>
												</g>
											</g>
										</g>
									</g>
								</g>
								<g>
									<g>
										<g>
											<g>
												<g>
													<path style="fill:#41376B;" d="M287.774,464.675c0,1.949-1.581,3.53-3.53,3.53c-1.95,0-3.53-1.581-3.53-3.53
														c0-1.95,1.581-3.53,3.53-3.53C286.193,461.145,287.774,462.725,287.774,464.675z"/>
												</g>
											</g>
										</g>
									</g>
								</g>
								<g>
									<g>
										<g>
											<g>
												<g>
													<path style="fill:#41376B;" d="M301.642,464.675c0,1.949-1.58,3.53-3.53,3.53s-3.53-1.581-3.53-3.53
														c0-1.95,1.581-3.53,3.53-3.53S301.642,462.725,301.642,464.675z"/>
												</g>
											</g>
										</g>
									</g>
								</g>
								<g>
									<g>
										<g>
											<g>
												<g>
													<path style="fill:#41376B;" d="M315.511,464.675c0,1.949-1.581,3.53-3.53,3.53c-1.95,0-3.53-1.581-3.53-3.53
														c0-1.95,1.581-3.53,3.53-3.53C313.93,461.145,315.511,462.725,315.511,464.675z"/>
												</g>
											</g>
										</g>
									</g>
								</g>
								<g>
									<g>
										<g>
											<g>
												<g>
													<path style="fill:#41376B;" d="M329.379,464.675c0,1.949-1.58,3.53-3.53,3.53c-1.95,0-3.53-1.581-3.53-3.53
														c0-1.95,1.581-3.53,3.53-3.53C327.799,461.145,329.379,462.725,329.379,464.675z"/>
												</g>
											</g>
										</g>
									</g>
								</g>
								<g>
									<g>
										<g>
											<g>
												<g>
													<path style="fill:#41376B;" d="M343.248,464.675c0,1.949-1.581,3.53-3.53,3.53c-1.95,0-3.53-1.581-3.53-3.53
														c0-1.95,1.581-3.53,3.53-3.53C341.667,461.145,343.248,462.725,343.248,464.675z"/>
												</g>
											</g>
										</g>
									</g>
								</g>
								<g>
									<g>
										<g>
											<g>
												<g>
													<path style="fill:#41376B;" d="M357.116,464.675c0,1.949-1.581,3.53-3.53,3.53c-1.949,0-3.53-1.581-3.53-3.53
														c0-1.95,1.581-3.53,3.53-3.53C355.536,461.145,357.116,462.725,357.116,464.675z"/>
												</g>
											</g>
										</g>
									</g>
								</g>
								<g>
									<g>
										<g>
											<g>
												<g>
													<path style="fill:#41376B;" d="M370.985,464.675c0,1.949-1.581,3.53-3.53,3.53c-1.95,0-3.53-1.581-3.53-3.53
														c0-1.95,1.581-3.53,3.53-3.53C369.404,461.145,370.985,462.725,370.985,464.675z"/>
												</g>
											</g>
										</g>
									</g>
								</g>
								<g>
									<g>
										<g>
											<g>
												<g>
													<path style="fill:#41376B;" d="M384.853,464.675c0,1.949-1.581,3.53-3.53,3.53c-1.95,0-3.53-1.581-3.53-3.53
														c0-1.95,1.58-3.53,3.53-3.53C383.273,461.145,384.853,462.725,384.853,464.675z"/>
												</g>
											</g>
										</g>
									</g>
								</g>
							</g>
						</g>
					</g>
				</g>
				
					<ellipse transform="matrix(0.7071 -0.7071 0.7071 0.7071 131.6105 452.3083)" style="fill:#F53F1D;" cx="611.79" cy="67.286" rx="19.018" ry="19.018"/>
				<g>
					<g>
						<g>
							<path style="fill:#F53F1D;" d="M102.576,474.904h108.103v-96.548c0-0.772-0.625-1.397-1.396-1.397s-1.396,0.625-1.396,1.397
								v93.755h-105.31c-0.771,0-1.396,0.625-1.396,1.397C101.179,474.279,101.804,474.904,102.576,474.904z"/>
						</g>
						<g>
							<path style="fill:#F53F1D;" d="M102.576,466.575h98.762v-88.219c0-0.772-0.625-1.397-1.397-1.397
								c-0.771,0-1.396,0.625-1.396,1.397v85.426h-95.969c-0.771,0-1.396,0.625-1.396,1.397
								C101.179,465.95,101.804,466.575,102.576,466.575z"/>
						</g>
						<g>
							<path style="fill:#F53F1D;" d="M102.576,458.246h89.421v-79.89c0-0.772-0.625-1.397-1.396-1.397s-1.396,0.625-1.396,1.397
								v77.097h-86.628c-0.771,0-1.396,0.625-1.396,1.397C101.179,457.621,101.804,458.246,102.576,458.246z"/>
						</g>
						<g>
							<path style="fill:#F53F1D;" d="M102.576,449.916h80.08v-71.56c0-0.772-0.625-1.397-1.396-1.397
								c-0.771,0-1.396,0.625-1.396,1.397v68.767h-77.287c-0.771,0-1.396,0.625-1.396,1.397
								C101.179,449.291,101.804,449.916,102.576,449.916z"/>
						</g>
						<g>
							<path style="fill:#F53F1D;" d="M102.576,441.587h70.739v-63.23c0-0.772-0.625-1.397-1.396-1.397
								c-0.771,0-1.396,0.625-1.396,1.397v60.438h-67.946c-0.771,0-1.396,0.625-1.396,1.396
								C101.179,440.962,101.804,441.587,102.576,441.587z"/>
						</g>
					</g>
				</g>
				<rect x="182.531" y="283.223" style="fill:#FFB001;" width="31.165" height="31.175"/>
				<path style="fill:#B56089;" d="M182.293,314.646c-0.167-17.177-7.197-32.716-18.481-44
					c-11.416-11.416-27.184-18.481-44.599-18.49v0.035h-0.035v62.455H182.293z"/>
				<path style="fill:#41376B;" d="M182.293,314.572c-0.167,17.177-7.197,32.716-18.481,44
					c-11.416,11.416-27.184,18.481-44.599,18.49v-0.035h-0.035v-62.455H182.293z"/>
				<circle style="fill:#F53F1D;" cx="235.37" cy="6.617" r="73.216"/>
				<circle style="fill:#B56089;" cx="729.151" cy="191.464" r="94.065"/>
				<circle style="fill:#001C5C;" cx="298.823" cy="48.772" r="44.818"/>
				<g>
					<g>
						<g>
							<g>
								<polygon style="fill:#41376B;" points="565.947,471.928 549.976,460.718 553.423,455.808 565.947,464.598 580.195,454.598 
									594.445,464.598 608.691,454.598 622.942,464.598 637.187,454.598 651.444,464.599 663.977,455.807 667.422,460.719 
									651.444,471.927 637.189,461.928 622.942,471.928 608.691,461.928 594.445,471.928 580.195,461.928 								"/>
							</g>
						</g>
						<g>
							<g>
								<polygon style="fill:#41376B;" points="565.947,489.26 549.976,478.05 553.423,473.14 565.947,481.93 580.195,471.93 
									594.445,481.93 608.691,471.93 622.942,481.93 637.187,471.93 651.444,481.931 663.977,473.139 667.422,478.051 
									651.444,489.259 637.189,479.26 622.942,489.26 608.691,479.26 594.445,489.26 580.195,479.26 								"/>
							</g>
						</g>
					</g>
				</g>
				<path style="fill:#41376B;" d="M752.667,130.995V0H622.534l3.416,18.451c2.055,11.111,10.755,19.803,21.858,21.867h0.009
					c5.56,1.023,10.506,3.719,14.332,7.535c3.816,3.825,6.512,8.772,7.535,14.332c1.023,5.56,3.719,10.506,7.535,14.323
					c3.825,3.825,8.772,6.512,14.332,7.544c5.56,1.023,10.506,3.71,14.323,7.535c3.817,3.816,6.503,8.771,7.535,14.323
					c2.064,11.111,10.755,19.812,21.867,21.867L752.667,130.995z"/>
				<path style="fill:#41376B;" d="M0.045-38.779v415.008c12.94-12.948-5.843-31.723,7.105-44.672
					c10.765-10.765,25.581,0.432,37.708-2.971c2.449-0.681,4.781-1.959,6.955-4.133c12.948-12.94-5.835-31.723,7.105-44.663
					c12.948-12.948,31.723,5.835,44.671-7.105c12.94-12.948-5.835-31.731,7.105-44.671c12.948-12.948,31.732,5.835,44.672-7.113
					V116.541C155.367,30.759,85.828-38.779,0.045-38.779z"/>
				<path style="fill:#F53F1D;" d="M771.302,233.645v398.442c-22.208-22.222,10.028-54.444-12.194-76.666
					c-18.475-18.476-43.902,0.741-64.714-5.1c12.906-14.501,38.205-20.47,38.205-43.874c0-31.424-45.583-31.41-45.598-62.834
					c0.014-31.41,45.598-31.424,45.598-62.834c0-12.194-6.866-19.658-15.271-26.054c-20.156-15.356-22.122-44.971-4.216-62.891
					L771.302,233.645z"/>
				<path style="fill:#41376B;" d="M698.389,354.023c-12.544,0-22.714,10.169-22.714,22.714s10.169,22.714,22.714,22.714
					c12.544,0,22.714-10.169,22.714-22.714S710.933,354.023,698.389,354.023z M698.389,387.607c-6.003,0-10.87-4.867-10.87-10.87
					c0-6.003,4.867-10.87,10.87-10.87c6.003,0,10.87,4.867,10.87,10.87C709.259,382.74,704.392,387.607,698.389,387.607z"/>
				<path style="fill:#FFB001;" d="M675.815,352.249c-13.524,0-24.488,10.964-24.488,24.488c0,13.524,10.964,24.488,24.488,24.488
					v28.695c-29.372,0-53.183-23.811-53.183-53.183c0-29.372,23.811-53.183,53.183-53.183V352.249z"/>
				<path style="fill:#FFF6F6;" d="M735.287,205.368c-17.114,0-30.983,13.878-30.983,30.992c0-17.114-13.878-30.992-30.992-30.992
					c17.114,0,30.992-13.87,30.992-30.984C704.304,191.498,718.173,205.368,735.287,205.368z"/>
				<polygon style="fill:#32456B;" points="438.486,101.007 426.759,87.687 415.03,101.006 403.301,87.687 391.574,101.007 
					379.846,87.687 368.118,101.007 356.016,87.261 356.767,86.6 368.118,99.493 379.846,86.174 391.574,99.493 403.301,86.174 
					415.03,99.493 426.759,86.174 438.486,99.493 450.214,86.174 462.318,99.919 461.566,100.58 450.214,87.687 				"/>
				<path style="fill:#BD5FB5;" d="M22.412,291.026L22.412,291.026c-30.343,0-54.94,24.597-54.94,54.94v0l0,0
					c0,30.342,24.597,54.94,54.94,54.94h0l0,0c30.342,0,54.94-24.597,54.94-54.94l0,0v0
					C77.352,315.624,52.755,291.026,22.412,291.026L22.412,291.026z"/>
				<path style="fill:#41376B;" d="M2.417,440.226L2.417,440.226c-31.678,0-57.357,25.68-57.357,57.357v0l0,0
					c0,31.677,25.68,57.357,57.357,57.357h0l0,0c31.677,0,57.357-25.68,57.357-57.357l0,0v0
					C59.774,465.905,34.095,440.226,2.417,440.226L2.417,440.226z"/>
				<path style="fill:#41376B;" d="M57.027,351.639L57.027,351.639c-14.04,0-25.422,11.382-25.422,25.422v0l0,0
					c0,14.04,11.382,25.422,25.422,25.422l0,0l0,0c14.04,0,25.422-11.382,25.422-25.422l0,0v0
					C82.45,363.021,71.068,351.639,57.027,351.639L57.027,351.639z"/>
				<g>
					<g>
						<g>
							<g>
								<g>
									<path style="fill:#41376B;" d="M528.068,417.077c0,1.166,0.945,2.111,2.111,2.111c1.166,0,2.111-0.945,2.111-2.111
										c0-1.166-0.945-2.111-2.111-2.111C529.013,414.966,528.068,415.911,528.068,417.077z"/>
								</g>
								<g>
									<path style="fill:#41376B;" d="M528.068,428.108c0,1.166,0.945,2.111,2.111,2.111c1.166,0,2.111-0.945,2.111-2.111
										c0-1.166-0.945-2.111-2.111-2.111C529.013,425.996,528.068,426.942,528.068,428.108z"/>
								</g>
								<g>
									<path style="fill:#41376B;" d="M517.325,417.077c0,1.166,0.945,2.111,2.111,2.111c1.166,0,2.111-0.945,2.111-2.111
										c0-1.166-0.945-2.111-2.111-2.111C518.271,414.966,517.325,415.911,517.325,417.077z"/>
								</g>
								<g>
									<path style="fill:#41376B;" d="M517.325,428.108c0,1.166,0.945,2.111,2.111,2.111c1.166,0,2.111-0.945,2.111-2.111
										c0-1.166-0.945-2.111-2.111-2.111C518.271,425.996,517.325,426.942,517.325,428.108z"/>
								</g>
							</g>
						</g>
						<g>
							<g>
								<g>
									<path style="fill:#41376B;" d="M484.618,417.077c0,1.166,0.945,2.111,2.111,2.111c1.166,0,2.111-0.945,2.111-2.111
										c0-1.166-0.945-2.111-2.111-2.111C485.563,414.966,484.618,415.911,484.618,417.077z"/>
								</g>
								<g>
									<path style="fill:#41376B;" d="M484.618,428.108c0,1.166,0.945,2.111,2.111,2.111c1.166,0,2.111-0.945,2.111-2.111
										c0-1.166-0.945-2.111-2.111-2.111C485.563,425.996,484.618,426.942,484.618,428.108z"/>
								</g>
								<g>
									<path style="fill:#41376B;" d="M473.876,417.077c0,1.166,0.945,2.111,2.111,2.111c1.166,0,2.111-0.945,2.111-2.111
										c0-1.166-0.945-2.111-2.111-2.111C474.821,414.966,473.876,415.911,473.876,417.077z"/>
								</g>
								<g>
									<path style="fill:#41376B;" d="M473.876,428.108c0,1.166,0.945,2.111,2.111,2.111c1.166,0,2.111-0.945,2.111-2.111
										c0-1.166-0.945-2.111-2.111-2.111C474.821,425.996,473.876,426.942,473.876,428.108z"/>
								</g>
							</g>
							<g>
								<g>
									<path style="fill:#41376B;" d="M506.364,417.077c0,1.166,0.945,2.111,2.111,2.111c1.166,0,2.111-0.945,2.111-2.111
										c0-1.166-0.945-2.111-2.111-2.111C507.309,414.966,506.364,415.911,506.364,417.077z"/>
								</g>
								<g>
									<path style="fill:#41376B;" d="M506.364,428.108c0,1.166,0.945,2.111,2.111,2.111c1.166,0,2.111-0.945,2.111-2.111
										c0-1.166-0.945-2.111-2.111-2.111C507.309,425.996,506.364,426.942,506.364,428.108z"/>
								</g>
								<g>
									<path style="fill:#41376B;" d="M495.621,417.077c0,1.166,0.945,2.111,2.111,2.111c1.166,0,2.111-0.945,2.111-2.111
										c0-1.166-0.945-2.111-2.111-2.111C496.566,414.966,495.621,415.911,495.621,417.077z"/>
								</g>
								<g>
									<path style="fill:#41376B;" d="M495.621,428.108c0,1.166,0.945,2.111,2.111,2.111c1.166,0,2.111-0.945,2.111-2.111
										c0-1.166-0.945-2.111-2.111-2.111C496.566,425.996,495.621,426.942,495.621,428.108z"/>
								</g>
							</g>
						</g>
					</g>
				</g>
				
					<rect x="473.743" y="437.496" transform="matrix(-1.836970e-16 1 -1 -1.836970e-16 973.7393 -36.2472)" style="fill:#BD5FB5;" width="62.501" height="62.501"/>
				<path style="fill:#B56089;" d="M411.239,437.496L411.239,437.496l62.501,0v62.501l0,0
					C439.222,499.996,411.239,472.014,411.239,437.496z"/>
				<polygon style="fill:#41376B;" points="536.351,437.447 473.778,500 473.778,437.447 				"/>
				<path style="fill:#41376B;" d="M642.416,95.952L642.416,95.952c-20.057,0-36.316,16.259-36.316,36.316v0l0,0
					c0,20.057,16.259,36.316,36.316,36.316h0l0,0c20.057,0,36.316-16.259,36.316-36.316l0,0v0
					C678.732,112.212,662.473,95.952,642.416,95.952L642.416,95.952z"/>
				<path style="fill:#F7FAFC;" d="M627.872,132.269L627.872,132.269L627.872,132.269c0,8.033,6.512,14.544,14.544,14.544h0l0,0
					c8.033,0,14.544-6.512,14.544-14.544l0,0v0H627.872z"/>
				<g>
					<g>
						<g>
							<g>
								<circle style="fill:#F53F1D;" cx="202.06" cy="153.407" r="4.22"/>
								<circle style="fill:#F53F1D;" cx="226.821" cy="153.407" r="4.22"/>
							</g>
							<g>
								<circle style="fill:#F53F1D;" cx="202.06" cy="174.738" r="4.22"/>
								<circle style="fill:#F53F1D;" cx="226.821" cy="174.738" r="4.22"/>
							</g>
						</g>
					</g>
					<g>
						<g>
							<g>
								<g>
									<path style="fill:#41376B;" d="M206.279,197.702c0,2.33-1.889,4.22-4.22,4.22c-2.33,0-4.219-1.889-4.219-4.22
										c0-2.33,1.889-4.219,4.219-4.219C204.39,193.483,206.279,195.372,206.279,197.702z"/>
								</g>
								<g>
									<path style="fill:#41376B;" d="M231.041,197.702c0,2.33-1.889,4.22-4.219,4.22s-4.219-1.889-4.219-4.22
										c0-2.33,1.889-4.219,4.219-4.219S231.041,195.372,231.041,197.702z"/>
								</g>
							</g>
							<g>
								<g>
									<path style="fill:#41376B;" d="M206.279,219.033c0,2.33-1.889,4.219-4.22,4.219c-2.33,0-4.219-1.889-4.219-4.219
										c0-2.33,1.889-4.219,4.219-4.219C204.39,214.813,206.279,216.702,206.279,219.033z"/>
								</g>
								<g>
									<path style="fill:#41376B;" d="M231.041,219.033c0,2.33-1.889,4.219-4.219,4.219s-4.219-1.889-4.219-4.219
										c0-2.33,1.889-4.219,4.219-4.219S231.041,216.702,231.041,219.033z"/>
								</g>
							</g>
						</g>
					</g>
				</g>
				<path style="fill:#B56089;" d="M179.491,128.539c0-19.302,15.647-34.949,34.949-34.949c19.302,0,34.949,15.647,34.949,34.949
					H179.491z"/>
				<g>
					<g>
						<g>
							<g>
								<path style="fill:#41376B;" d="M628.903,297.377c1.399-1.399,3.668-1.399,5.067,0c1.399,1.399,1.399,3.668,0,5.067
									c-1.399,1.399-3.668,1.399-5.067,0C627.503,301.045,627.503,298.776,628.903,297.377z"/>
							</g>
							<g>
								<path style="fill:#41376B;" d="M628.903,326.796c1.399-1.399,3.668-1.399,5.067,0c1.399,1.399,1.399,3.668,0,5.067
									c-1.399,1.399-3.668,1.399-5.067,0C627.503,330.464,627.503,328.196,628.903,326.796z"/>
							</g>
							<g>
								<path style="fill:#41376B;" d="M614.193,317.154c-1.399-1.399-1.399-3.668,0-5.067c1.399-1.399,3.668-1.399,5.067,0
									c1.399,1.399,1.399,3.668,0,5.067C617.861,318.553,615.592,318.553,614.193,317.154z"/>
							</g>
							<g>
								<path style="fill:#41376B;" d="M643.612,317.154c-1.399-1.399-1.399-3.668,0-5.067c1.399-1.399,3.668-1.399,5.067,0
									c1.399,1.399,1.399,3.668,0,5.067C647.28,318.553,645.011,318.553,643.612,317.154z"/>
							</g>
						</g>
					</g>
					<g>
						<g>
							<g>
								<path style="fill:#41376B;" d="M569.282,373.417c1.979,0,3.583,1.604,3.583,3.583s-1.604,3.583-3.583,3.583
									c-1.979,0-3.583-1.604-3.583-3.583S567.303,373.417,569.282,373.417z"/>
								<path style="fill:#FFB001;" d="M569.282,352.391c1.979,0,3.583,1.604,3.583,3.583c0,1.979-1.604,3.583-3.583,3.583
									c-1.979,0-3.583-1.604-3.583-3.583C565.699,353.995,567.303,352.391,569.282,352.391z"/>
							</g>
							<g>
								<path style="fill:#FFB001;" d="M587.394,373.417c1.979,0,3.583,1.604,3.583,3.583s-1.604,3.583-3.583,3.583
									c-1.979,0-3.583-1.604-3.583-3.583S585.416,373.417,587.394,373.417z"/>
								<path style="fill:#41376B;" d="M587.394,352.391c1.979,0,3.583,1.604,3.583,3.583c0,1.979-1.604,3.583-3.583,3.583
									c-1.979,0-3.583-1.604-3.583-3.583C583.812,353.995,585.416,352.391,587.394,352.391z"/>
							</g>
						</g>
					</g>
					<g>
						<g>
							<g>
								<path style="fill:#41376B;" d="M581.921,207.026c1.979,0,3.583,1.604,3.583,3.583s-1.604,3.583-3.583,3.583
									s-3.583-1.604-3.583-3.583S579.942,207.026,581.921,207.026z"/>
								<path style="fill:#FFB001;" d="M581.921,186c1.979,0,3.583,1.604,3.583,3.583s-1.604,3.583-3.583,3.583
									s-3.583-1.604-3.583-3.583S579.942,186,581.921,186z"/>
							</g>
							<g>
								<path style="fill:#FFB001;" d="M600.034,207.026c1.979,0,3.583,1.604,3.583,3.583s-1.604,3.583-3.583,3.583
									c-1.979,0-3.583-1.604-3.583-3.583S598.055,207.026,600.034,207.026z"/>
								<path style="fill:#41376B;" d="M600.034,186c1.979,0,3.583,1.604,3.583,3.583s-1.604,3.583-3.583,3.583
									c-1.979,0-3.583-1.604-3.583-3.583S598.055,186,600.034,186z"/>
							</g>
						</g>
					</g>
					<path style="fill:#41376B;" d="M603.601,282.894L603.601,282.894h-50.433v-50.433l0,0
						C581.021,232.461,603.601,255.041,603.601,282.894z"/>
					<path style="fill:#BD5FB5;" d="M654.034,282.894L654.034,282.894h-50.433v-50.433l0,0
						C631.454,232.461,654.034,255.041,654.034,282.894z"/>
					<path style="fill:#F53F1D;" d="M553.168,282.894L553.168,282.894v25.735l0,0c13.64,0,24.698,11.058,24.698,24.698h25.735
						C603.601,305.474,581.021,282.894,553.168,282.894z"/>
				</g>
				<rect x="649.715" y="20.123" style="fill:#FFB001;" width="58.746" height="58.746"/>
				<g>
					<g>
						<g>
							<path style="fill:#41376B;" d="M662.119,42.677c0.578,0,1.143-0.234,1.551-0.643c0.409-0.409,0.643-0.973,0.643-1.551
								c0-0.578-0.234-1.143-0.643-1.551c-0.409-0.409-0.974-0.643-1.551-0.643c-0.578,0-1.143,0.234-1.551,0.643
								c-0.408,0.409-0.643,0.974-0.643,1.551c0,0.578,0.234,1.143,0.643,1.551C660.976,42.443,661.541,42.677,662.119,42.677"/>
						</g>
						<g>
							<path style="fill:#41376B;" d="M684.74,42.677h0.011c1.212,0,2.194-0.982,2.194-2.194c0-1.212-0.982-2.194-2.194-2.194
								h-0.011c-1.212,0-2.194,0.982-2.194,2.194C682.545,41.695,683.528,42.677,684.74,42.677z"/>
						</g>
						<g>
							<path style="fill:#41376B;" d="M673.426,42.677h0.011c1.212,0,2.194-0.982,2.194-2.194c0-1.212-0.982-2.194-2.194-2.194
								h-0.011c-1.212,0-2.194,0.982-2.194,2.194C671.232,41.695,672.215,42.677,673.426,42.677z"/>
						</g>
						<g>
							<path style="fill:#41376B;" d="M696.058,42.677c0.578,0,1.143-0.234,1.552-0.643c0.409-0.409,0.643-0.973,0.643-1.551
								c0-0.578-0.234-1.143-0.643-1.551c-0.409-0.409-0.974-0.643-1.552-0.643s-1.143,0.234-1.552,0.643
								c-0.409,0.409-0.643,0.974-0.643,1.551c0,0.578,0.234,1.143,0.643,1.551C694.915,42.443,695.48,42.677,696.058,42.677"/>
						</g>
						<g>
							<path style="fill:#41376B;" d="M662.119,33.665c0.578,0,1.143-0.234,1.551-0.643c0.409-0.409,0.643-0.974,0.643-1.551
								c0-0.578-0.234-1.143-0.643-1.552c-0.409-0.409-0.974-0.642-1.551-0.642c-0.578,0-1.143,0.234-1.551,0.642
								c-0.408,0.409-0.643,0.974-0.643,1.552c0,0.577,0.234,1.143,0.643,1.551C660.976,33.431,661.541,33.665,662.119,33.665"/>
						</g>
						<g>
							<path style="fill:#41376B;" d="M684.74,33.665h0.011c1.212,0,2.194-0.983,2.194-2.194c0-1.212-0.982-2.194-2.194-2.194
								h-0.011c-1.212,0-2.194,0.982-2.194,2.194C682.545,32.683,683.528,33.665,684.74,33.665z"/>
						</g>
						<g>
							<path style="fill:#41376B;" d="M673.426,33.665h0.011c1.212,0,2.194-0.983,2.194-2.194c0-1.212-0.982-2.194-2.194-2.194
								h-0.011c-1.212,0-2.194,0.982-2.194,2.194C671.232,32.683,672.215,33.665,673.426,33.665z"/>
						</g>
						<g>
							<path style="fill:#41376B;" d="M696.058,33.665c0.578,0,1.143-0.234,1.552-0.643c0.409-0.409,0.643-0.974,0.643-1.551
								c0-0.578-0.234-1.143-0.643-1.552c-0.409-0.409-0.974-0.642-1.552-0.642s-1.143,0.234-1.552,0.642
								c-0.409,0.409-0.643,0.974-0.643,1.552c0,0.577,0.234,1.143,0.643,1.551C694.915,33.431,695.48,33.665,696.058,33.665"/>
						</g>
						<g>
							<path style="fill:#41376B;" d="M662.119,51.69c0.578,0,1.143-0.234,1.551-0.643c0.409-0.409,0.643-0.974,0.643-1.551
								c0-0.578-0.234-1.143-0.643-1.551c-0.409-0.409-0.974-0.643-1.551-0.643c-0.578,0-1.143,0.234-1.551,0.643
								c-0.408,0.409-0.643,0.974-0.643,1.551c0,0.578,0.234,1.143,0.643,1.551C660.976,51.456,661.541,51.69,662.119,51.69"/>
						</g>
						<g>
							<path style="fill:#41376B;" d="M684.74,51.69h0.011c1.212,0,2.194-0.982,2.194-2.194c0-1.212-0.982-2.194-2.194-2.194h-0.011
								c-1.212,0-2.194,0.982-2.194,2.194C682.545,50.707,683.528,51.69,684.74,51.69z"/>
						</g>
						<g>
							<path style="fill:#41376B;" d="M673.426,51.69h0.011c1.212,0,2.194-0.982,2.194-2.194c0-1.212-0.982-2.194-2.194-2.194
								h-0.011c-1.212,0-2.194,0.982-2.194,2.194C671.232,50.707,672.215,51.69,673.426,51.69z"/>
						</g>
						<g>
							<path style="fill:#41376B;" d="M696.058,51.69c0.578,0,1.143-0.234,1.552-0.643c0.409-0.409,0.643-0.974,0.643-1.551
								c0-0.578-0.234-1.143-0.643-1.551c-0.409-0.409-0.974-0.643-1.552-0.643s-1.143,0.234-1.552,0.643
								c-0.409,0.409-0.643,0.974-0.643,1.551c0,0.578,0.234,1.143,0.643,1.551C694.915,51.456,695.48,51.69,696.058,51.69"/>
						</g>
						<g>
							<path style="fill:#41376B;" d="M662.119,60.702c0.578,0,1.143-0.234,1.551-0.643c0.409-0.409,0.643-0.974,0.643-1.551
								c0-0.578-0.234-1.143-0.643-1.552c-0.409-0.409-0.974-0.642-1.551-0.642c-0.578,0-1.143,0.234-1.551,0.642
								c-0.408,0.409-0.643,0.974-0.643,1.552c0,0.578,0.234,1.143,0.643,1.551C660.976,60.468,661.541,60.702,662.119,60.702"/>
						</g>
						<g>
							<path style="fill:#41376B;" d="M684.74,60.702h0.011c1.212,0,2.194-0.982,2.194-2.194c0-1.212-0.982-2.194-2.194-2.194
								h-0.011c-1.212,0-2.194,0.982-2.194,2.194C682.545,59.72,683.528,60.702,684.74,60.702z"/>
						</g>
						<g>
							<path style="fill:#41376B;" d="M673.426,60.702h0.011c1.212,0,2.194-0.982,2.194-2.194c0-1.212-0.982-2.194-2.194-2.194
								h-0.011c-1.212,0-2.194,0.982-2.194,2.194C671.232,59.72,672.215,60.702,673.426,60.702z"/>
						</g>
						<g>
							<path style="fill:#41376B;" d="M696.058,60.702c0.578,0,1.143-0.234,1.552-0.643c0.409-0.409,0.643-0.974,0.643-1.551
								c0-0.578-0.234-1.143-0.643-1.552c-0.409-0.409-0.974-0.642-1.552-0.642s-1.143,0.234-1.552,0.642
								c-0.409,0.409-0.643,0.974-0.643,1.552c0,0.578,0.234,1.143,0.643,1.551C694.915,60.468,695.48,60.702,696.058,60.702"/>
						</g>
						<g>
							<path style="fill:#41376B;" d="M662.119,69.715c0.578,0,1.143-0.234,1.551-0.643c0.409-0.408,0.643-0.974,0.643-1.551
								c0-0.578-0.234-1.143-0.643-1.551c-0.409-0.409-0.974-0.643-1.551-0.643c-0.578,0-1.143,0.234-1.551,0.643
								c-0.408,0.408-0.643,0.974-0.643,1.551c0,0.578,0.234,1.143,0.643,1.551C660.976,69.481,661.541,69.715,662.119,69.715"/>
						</g>
						<g>
							<path style="fill:#41376B;" d="M684.74,69.715h0.011c1.212,0,2.194-0.982,2.194-2.194s-0.982-2.194-2.194-2.194h-0.011
								c-1.212,0-2.194,0.982-2.194,2.194S683.528,69.715,684.74,69.715z"/>
						</g>
						<g>
							<path style="fill:#41376B;" d="M673.426,69.715h0.011c1.212,0,2.194-0.982,2.194-2.194s-0.982-2.194-2.194-2.194h-0.011
								c-1.212,0-2.194,0.982-2.194,2.194S672.215,69.715,673.426,69.715z"/>
						</g>
						<g>
							<path style="fill:#41376B;" d="M696.058,69.715c0.578,0,1.143-0.234,1.552-0.643c0.409-0.408,0.643-0.974,0.643-1.551
								c0-0.578-0.234-1.143-0.643-1.551c-0.409-0.409-0.974-0.643-1.552-0.643s-1.143,0.234-1.552,0.643
								c-0.409,0.408-0.643,0.974-0.643,1.551c0,0.578,0.234,1.143,0.643,1.551C694.915,69.481,695.48,69.715,696.058,69.715"/>
						</g>
					</g>
				</g>
				<rect x="30.401" y="417.091" style="fill:#FFB001;" width="58.746" height="58.746"/>
				<g>
					<g>
						<g>
							<g>
								<path style="fill:#B56089;" d="M72.865-20.961v0.978h-3v-0.978H72.865z M72.865-7.984v12h-3v-12H72.865z M72.865,16.016v12
									h-3v-12H72.865z M72.865,40.016v12h-3v-12H72.865z M72.865,64.016v12h-3v-12H72.865z M72.865,88.016v12h-3v-12H72.865z
									 M72.865,112.016v12h-3v-12H72.865z M70.848,133.999v3h-12v-3H70.848z M46.848,133.999v3h-12v-3H46.848z M22.848,133.999v3
									h-12v-3H22.848z M-1.152,133.999v3h-12v-3H-1.152z M-25.152,133.999v3h-8.222v-6.778h3v3.778H-25.152z M-30.374-13.78v12h-3
									v-12H-30.374z M-30.374,10.22v12h-3v-12H-30.374z M-30.374,34.22v12h-3v-12H-30.374z M-30.374,58.22v12h-3v-12H-30.374z
									 M-30.374,82.22v12h-3v-12H-30.374z M-30.374,106.22v12h-3v-12H-30.374z"/>
							</g>
						</g>
					</g>
				</g>
				<path style="fill:#B56089;" d="M111.861,146.011c-12.545,0-22.714,10.169-22.714,22.714s10.169,22.714,22.714,22.714
					c12.544,0,22.714-10.169,22.714-22.714S124.406,146.011,111.861,146.011z M111.861,179.595c-6.003,0-10.87-4.867-10.87-10.87
					s4.867-10.87,10.87-10.87c6.003,0,10.87,4.867,10.87,10.87S117.864,179.595,111.861,179.595z"/>
				<path style="fill:#FFB001;" d="M8.891,35.305c-12.545,0-22.714,10.169-22.714,22.714S-3.653,80.732,8.891,80.732
					c12.544,0,22.714-10.169,22.714-22.714S21.436,35.305,8.891,35.305z"/>
				<g>
					<g>
						<path style="fill:#FFFFFF;" d="M58.501,240.959L43.132,225.59l-15.369,15.369l-10.014-10.013l25.383-25.378l25.378,25.378
							L58.501,240.959z M19.163,230.945l8.6,8.599l15.369-15.369l15.369,15.369l8.595-8.599l-23.964-23.964L19.163,230.945z"/>
					</g>
					<g>
						<path style="fill:#FFFFFF;" d="M58.501,189.641l-15.369-15.369l-15.369,15.369l-10.014-10.013l25.383-25.378l25.378,25.378
							L58.501,189.641z M19.163,179.628l8.6,8.599l15.369-15.369l15.369,15.369l8.595-8.599l-23.964-23.964L19.163,179.628z"/>
					</g>
				</g>
				<g>
					<g>
						<g>
							<g>
								<g>
									<g>
										<rect x="412.441" y="355.383" style="fill:#41376B;" width="8.133" height="30.607"/>
									</g>
								</g>
							</g>
						</g>
						<g>
							<g>
								<g>
									<g>
										<rect x="401.204" y="366.621" style="fill:#41376B;" width="30.607" height="8.133"/>
									</g>
								</g>
							</g>
						</g>
					</g>
				</g>
				<g>
					<g>
						<g>
							<g>
								<g>
									<g>
										<rect x="513.259" y="90.292" style="fill:#41376B;" width="8.133" height="30.607"/>
									</g>
								</g>
							</g>
						</g>
						<g>
							<g>
								<g>
									<g>
										<rect x="502.022" y="101.529" style="fill:#41376B;" width="30.607" height="8.133"/>
									</g>
								</g>
							</g>
						</g>
					</g>
				</g>
				<g>
					<g>
						<g>
							<g>
								<path style="fill:#41376B;" d="M89.148,314.766l-10.695-10.694l10.695-10.694l10.694,10.694L89.148,314.766z
									 M82.696,304.072l6.452,6.452l6.452-6.452l-6.452-6.452L82.696,304.072z"/>
							</g>
						</g>
					</g>
				</g>
				<g>
					<g>
						<g>
							<g>
								<path style="fill:#41376B;" d="M151.208,427.156h-35.765v-35.765h35.765V427.156z M118.443,424.156h29.765v-29.765h-29.765
									V424.156z"/>
							</g>
						</g>
					</g>
				</g>
				<g>
					<path style="fill:#181839;" d="M187.401,73.118h-28.668l41.655-49.699h28.668L187.401,73.118z M165.163,70.118h20.838
						l36.626-43.699h-20.838L165.163,70.118z"/>
				</g>
				<g>
					<polygon style="fill:#FFB001;" points="331.726,500 352.589,479.137 373.452,500 					"/>
				</g>
				<g>
					<g>
						<g>
							<polygon style="fill:#41376B;" points="257.57,500 278.432,479.137 299.295,500 							"/>
						</g>
					</g>
				</g>
			</g>
		</g>
	</g>
</g>
</svg>
