<?xml version='1.0' encoding='utf-8'?>
<svg xmlns="http://www.w3.org/2000/svg" width="872px" height="622px" version="1.1" viewBox="100 749 872 622"> <g> <g fill="#f26655"> <path d="m98.117 747.5c-0.10193 0-0.19971 0.04026-0.27173 0.11246-0.07208 0.0719-0.11255 0.1698-0.11255 0.2717l9.56e-4 624.23c0 0.212 0.17212 0.3841 0.38434 0.3841l875.77 1e-3c0.1018 0 0.19956-0.0403 0.2716-0.1124 0.072-0.0722 0.11253-0.1699 0.11253-0.2717l-6.3e-4 -624.23c0-0.212-0.17185-0.3841-0.38425-0.3841l-875.77-0.00186z"/> </g> <g> <path d="m352.76 961.43-1.6265 0.01586q-5.7121-0.0115-14.82 1.4778-4.4493 0.14305-22.158 7.3592-13.638 6.5311-24.251 17.394-10.965 11.073-17.496 25.639-2.3978 3.3213-6.5838 21.56-1.2194 7.3918-1.138 15.056 0.02472 15.851 5.7992 30.695 7.7168 17.282 10.556 19.842 4.3287 6.0542 9.7373 11.361 24.602 24.256 61.434 25.299 17.132-0.0012 31.641-5.8074 17.345-7.7504 19.904-10.604 6.0657-4.3479 11.374-9.7801 10.965-11.087 17.499-25.632 3.1707-6.9773 5.0406-14.23 3.5364-18.373 2.6831-22.376-0.0437-15.874-5.7647-30.669-2.7049-7.1702-6.5181-13.617-10.503-15.482-13.933-17.71-25.057-24.352-61.377-25.272m15.755-27.927 0.89093 0.00439q74.382 5.3841 100.5 57.272 14.537 32.142 7.0859 45.048l32.881 41.631q7.4907 10.472 7.8351 15.087 0.74364 4.0898-4.359 7.9154-7.2383 5.3174-16.9 6.6955-1.8057 0.8653-2.4005 2.8406-0.77439 0.4378 2.4341 10.536 5.9918 8.5083 4.9641 8.8914 1.3318 2.9924-7.3368 9.6657-1.1036 0.2415 5.2258 7.2784 0.66186 0.9328 0.63867 2.1684-9.0453 11.456-8.2529 14.508l5.794 20.581q0.82203 5.4397-0.396 7.9148-7.0483 13.596-21.193 16.129l-45.903 0.8009q-2.9223 2.7278-6.1878 12.733l-1.857 7.4031 2.7298 0.6694-2.901 7.405-161.04 0.1602q6.9786-13.112 9.6154-20.222 4.9585-30.668 4.6687-53.638-0.82446-9.2839-6.0431-18.424l-24.347-37.859q-5.9611-13.658-9.3626-27.558-9.6514-35.693 2.9212-72.759 29.631-71.378 130.29-72.878z"/> </g> <g fill-opacity=".99608"> <path d="m256.6 1053.3 0.9469 13.865q6.6734 41.897 38.875 66.987 32.424 25.07 76.325 20.282 41.895-6.6745 66.986-38.875 8.0392-10.408 13.238-22.679l4.3676-12.613q3.5964-13.019 3.6229-27.169-1.1388-43.417-30-72.223-28.861-28.803-72.282-29.856-43.42 1.1391-72.223 30-28.804 28.861-29.856 72.282"/> <path d="m482.26 1235.9-132.57 0.1331-132.57 0.1322q0.02606 26.293 0.05231 52.586 132.57-0.1322 265.15-0.2625-0.02605-26.294-0.05205-52.589"/> <path d="m421.42 1196.2-145.77-2.1658q-0.16339 10.97-0.32636 21.939 72.886 1.0843 145.77 2.1684 0.16298-10.971 0.32624-21.942"/> </g> <g fill="#ff1c00" fill-opacity=".99608"> <path d="m246.31 1052.4v0.0012l1.8e-4 1e-3 -1.8e-4 -0.0022v0.0012-0.0012l1.8e-4 0.0022q-1.8e-4 -0.0022-1.8e-4 -0.0022"/> </g> <g fill="#fff"> <path d="m435.57 991.63-0.36621-0.45996q-5.8924-9.4734-23.979-19.441-17.667-9.1238-37.232-11.777-15.146-2.603-38.277-0.17394-26.442 3.9809-40.066 10.556-20.699 8.5742-28.386 33.136-11.408 46.677-0.1894 61.191 5.3034 6.1135 19.675 4.9547 5.2517-0.3261 14.743-2.5002 30.444-7.9959 36.648-8.8628 10.558-1.8535 16.897-1.5561 9.2502 0.251 19.132 2.336 1.7383 0.1094 35.262 8.5605 3.3174 0.7984 6.6512 1.3413 10.318 1.5397 15.763-1.0567 5.3218-1.9063 8.9482-9.3528 3.3166-7.2837 4.2416-21.907 0.91034-26.283-9.4675-44.989"/> </g> <g> <path d="m345.94 969.72 0.84338 0.54825q3.2832 2.2404 5.1235 5.2441l0.3313-0.5963q0.35108-0.58875 0.78094-1.1498 0.42987-0.56114 0.93854-1.0939 1.014-1.0658 2.3571-2.02-4.4359-0.54947-6.0706-0.66157-2.2692-0.1931-4.3041-0.27075m29.969-2.5125-1.361 0.22022q-5.3579 0.90649-9.3388 2.2182 2.2942 0.7139 4.1862 1.51 3.1834 1.4229 4.1312 2.1216 3.1834-0.18875 3.9356-0.15415 1.6002 0.0118 3.0725 0.20054l1.4404 0.23303q4.2253 0.83179 7.3009 3.2582 0.57274 0.05295 1.4414 0.1781l-1.079-1.4121q-1.1496-1.3703-2.5821-2.5794-1.4326-1.2086-3.1482-2.2558-3.4271-2.093-7.9991-3.5384m1.3924 8.9403-0.04863 9.7e-4q-0.19477-0.00267-0.39185-4.7e-4 0.51971 0.5952 1.0369 1.5903 0.56402-0.1648 1.1548-0.3152 0.43573-0.11716 1.5197-0.3547 0.83221-0.13136 1.8655-0.2345l-0.52582-0.14015q-0.53118-0.13245-1.0851-0.23255l-0.55945-0.09154-0.57049-0.07642-0.58222-0.06054-0.59313-0.0449-0.60456-0.0282-0.61567-0.0121m-47.152-6.6665-0.38782 0.0442q-1.541 0.1871-2.9215 0.5693l-13.862 4.4196q3.2709-0.56687 5.581 0.02403 0.89343 0.2057 1.8609 0.70094 1.582 0.91566 3.4257 2.4047 0.57497 0.01075 1.4504 0.094 0.1449-0.57446 0.6709-1.9866 0.3114-0.81394 0.71253-1.6562 0.1576-0.63613 0.417-1.2174l0.28472-0.56737q0.9342-1.6615 2.7686-2.8291m8.7006 0.3867-1.752 0.22486-1.5712 0.30798-1.3908 0.39206-1.2095 0.47586-1.0288 0.55884-0.84784 0.64294-0.66717 0.72696-0.48615 0.8099-0.36834 1.0991q-0.33416 0.69485-0.78686 1.8445l-0.45393 1.329q0.55091 0.135 1.3619 0.4016 1.4458-0.9717 2.8905-1.7246l1.4445-0.69874 1.4442-0.59046 1.4436-0.4797 1.443-0.3716 1.4428-0.2621 1.4422-0.15344q1.9058-0.07141 1.955-0.03256 2.7825 0.1197 4.6982 0.8038-0.64942-0.714-1.4236-1.3673-0.77472-0.6533-1.6745-1.2455l-0.9311-0.5779q-0.9624-0.5622-2.05-1.0643l-1.1191-0.48694-1.1743-0.45616-0.63062-0.1061m21.805 1.6364-1.0912 0.59145q-3.1337 1.8178-4.5918 4.1281-0.48621 0.77074-0.78632 1.5945l0.24194 0.88426q0.32013 0.2217 0.77784 0.5818l1.452-0.8274q1.4552-0.7971 2.9232-1.4751 1.4675-0.6766 2.9476-1.2342 2.9562-1.1142 5.9757-1.7483-2.5883-1.0349-4.0016-1.4356-1.7749-0.54947-3.8472-1.0595m-44.866 5.6914-0.64691 0.01414q-2.6482 0.1372-6.2533 1.5191 0.7873 0.49047 1.5144 1.1142 0.57965 0.5076 0.76977 0.71 0.13568 0.1389 0.26789 0.38963 0.87994-0.47633 1.7526-0.88403 0.87268-0.40845 1.7381-0.7478l0.86352-0.322q1.7194-0.6094 3.4241-0.9441l-0.2663-0.168-0.3017-0.1406q-0.79206-0.302-0.98022-0.3242-0.34522-0.0838-0.7157-0.13504-0.37012-0.05151-0.76489-0.07056l-0.40137-0.01074m70.333 2.4872-0.54314 7.6e-4q-0.2687-0.0103-1.6461 0.0598-1.106 0.06835-2.2344 0.2141l-0.56543 0.0781-1.1299 0.26297q-0.44334 0.11013-0.86852 0.22923 0.40852 0.908 0.74207 2.2498 2.2675-0.60403 4.974-0.5193 0.86395 0.021 1.7927 0.10374 0.22205 0.01096 1.4301 0.15846l0.58148 0.0842q1.2212 0.25563 1.9716 0.4419-0.53266-0.85204-1.1398-1.5986-0.30372-0.37355-0.62592-0.7207l-0.3266-0.3406q-0.33478-0.3342-0.6748-0.6411-1.0547-0.0635-1.7373-0.06276m-63.423 0.98596-0.83704 0.05103-0.84308 0.0896-0.84918 0.13137-0.8551 0.1716-0.86084 0.2124-0.86707 0.2522-0.87297 0.29347-0.87886 0.33349-0.88501 0.37424q0.95654-0.15866 1.9264-0.2441 0.48511-0.04225 0.97364-0.0664 0.48846-0.0242 0.9801-0.0298l0.49267-0.0012q0.55213 0.00364 1.1084 0.0315 0.55627 0.0271 1.1168 0.0776l0.56152 0.0559q1.1255 0.12355 2.2679 0.3394-0.77515-1.262-1.6782-2.0723m-17.554-0.2947-0.14509 0.0711q-0.58147 0.2873-1.1823 0.5976l0.00734 2e-3q-0.0386 0.4377-0.039 0.9194l0.00908 0.4927q0.01849 0.50414 0.07507 1.05 0.11315 1.0928 0.37835 2.3592 1.4871-1.1844 2.2472-1.7439 1.6384-1.1948 2.3446-1.6258-0.36797-0.3435-0.7545-0.63894-0.38636-0.2961-0.7914-0.5437l-0.4099-0.2363q-0.82502-0.4468-1.7394-0.7034m37.528-2.9868-1.0658 0.02784q-4.2686 0.24926-8.6245 2.7534 1.8082 1.0224 3.3566 2.4438 0.77607 0.71095 1.4907 1.5205l0.69952 0.83547q0.6842 0.86033 1.307 1.8201 0.28509-0.0459 0.59521-0.02464 4.5164-1.343 6.8472-1.8137 2.256-1.8743 3.7212-2.9008 0.04357-0.45215-0.021-0.58594-0.16015-0.85071-0.40789-1.6515l-0.41816-0.2344q-1.6961-0.92896-3.6961-1.7131-0.62683-0.1792-2.098-0.37622-0.84112-0.09448-1.6859-0.10084m30.151-1.0135v7.4e-4q-1.731 0.1797-3.4475 0.5298-1.7165 0.3496-3.4191 0.86814l-1.6987 0.56202q-3.3906 1.2085-6.7244 3.0957 1.306 1.3076 2.6456 3.708 2.6362 0.65869 6.3469 2.4258 0.31909-1.3072 0.91576-2.4702l0.6665-1.1262 0.80513-1.0525 0.94397-0.9802 1.0827-0.90674 1.2216-0.83472 1.3604-0.76098 1.506-0.68799q-0.94384-1.5034-2.2048-2.3706m-42.766 5.7215-0.21869 0.1648q-0.8761 0.66066-1.7554 1.4124 2.7135 0.84228 5.5035 2.1772 0.98083 0.4639 0.93737 0.4888 0.89503 0.71385 1.9876 1.7571l0.39472-0.18776q-0.62103-0.88914-1.3039-1.6689-0.68297-0.78005-1.428-1.4532l-0.7602-0.64675q-1.5475-1.2366-3.3569-2.0437m24.56 4.8568-0.14728 9.7e-4q-0.59466 1e-3 -1.2731 0.0535l0.00695 0.0012-0.0584 0.17114-0.1869 0.50806q-0.09374 0.25415-0.35192 0.8169 2.0043-0.1294 3.204-0.17604-0.17834-0.2146-0.57142-0.74682l-0.3292-0.4668-0.1075-0.15894 0.00696 1e-3 -0.19226-0.00417m-56.857-5.9613-0.57317 0.22073q-2.3102 0.92527-4.9026 2.5767-2.8188 1.8567-4.8195 3.8459l-0.48768 0.49902q0.54224 0.0874 1.0915 0.22924 0.97559 0.2681 1.4177 0.4414 0.42815-2.0532 1.7446-3.6133 0.31514-0.26978 3.0927-2.0703l1.4018-0.8855 2.0348-1.2439m78.508 0.51846v9.8e-4l-1.2732 0.58691-1.1475 0.64455-1.0216 0.7041-0.89537 0.7622-0.76954 0.8208-0.6435 0.8799-0.51788 0.9377-0.39154 0.99685-0.26587 1.0552q1.0499 0.17653 2.4174 0.5601l0.19628-0.6204 0.27814-0.60325 0.35998-0.58715 0.44196-0.5708 0.5238-0.55397q0.56458-0.54516 1.293-1.0566 0.72497-0.5132 1.6272-0.9917 0.28765-0.23634 0.49773-0.3728-0.20776-1.523-0.70953-2.5925m-51.638 5.4461-0.26935 0.28396q-1.0779 1.1433-2.161 2.4194 0.36273-0.02124 0.60517-0.02784 0.2863-0.30276 0.53576-0.60426l0.24042-0.3003q0.23114-0.2993 0.42566-0.5959 0.19458-0.2964 0.35211-0.5901l0.14838-0.293 0.13007-0.2915-0.00727 0.00124m5.511 0.6687 0.33178 0.28176q1.3254 1.1106 2.6254 1.9687l0.56762-0.30246q-0.32086-0.29151-0.86712-0.74534l0.00707 0.0012q-1.6334-0.7969-2.6648-1.2039m12.417 1.6531-0.12384 0.0364q-0.49652 0.1465-1.0079 0.30175l0.00695 7.5e-4q0.16114 0.32884 0.26075 0.5432 0.33807-0.3484 0.87103-0.8821l-0.00708 0.0017m7.0988-1.7751-0.1037 0.0207q-0.41626 0.0811-0.85138 0.1724l0.00682 0.0017-0.97588 0.8528-0.64947 0.5852q-0.64875 0.59325-1.295 1.2129 0.32514-0.18606 0.6454-0.3528 0.79656-0.3977 0.95-0.45386 0.6225-0.27294 1.2394-0.46704 0.20636-0.2363 0.61476-0.8447 0.11382-0.17654 0.2204-0.35794 0.10637-0.1814 0.2056-0.36866l-0.00694 1e-3m-22.584 1.4341-0.05707 0.10203q-0.23115 0.4082-0.51129 0.81667 0.4975 0.07788 0.97448 0.18093 0.5998 0.13425 0.71802 0.1689 0.2381 0.06106 0.47492 0.12844-0.35285-0.29274-0.70648-0.60134-0.61915-0.54563-0.88532-0.79563l-0.00726 9.7e-4m-7.781-3.6784-0.64495 0.00364q-2.5721 0.05276-5.0236 0.67356 0.42097 1.3325 0.59509 2.5796 0.08912 0.6238 0.12012 1.2266 0.03089 0.6025 0.00372 1.1836l-0.04162 0.57614q2.1121-0.80664 3.4238-1.1189 2.5624-3.2583 4.2045-4.9607-1.6266-0.17139-2.637-0.16355m-18.448-2.5933-0.78028 0.4534q-3.1483 1.8484-6.7388 4.2717l-0.34484 0.58766q-0.10535 0.14284-0.35718 0.91164-0.16932 0.61985-0.15546 1.2749 1.1105 0.5737 2.9779 1.8293 0.18847-0.2612 1.6511-1.5129 0.61553-0.4983 1.3173-0.9868 1.3996-0.97903 3.1605-1.9231-0.28241-1.2044-0.45643-2.3074-0.1574-0.85595-0.27385-2.5984m95.455-1.0248 0.10333 0.36646q0.40265 1.4724 0.63129 3.0481 3.756 1.4802 6.8572 3.5159 1.5521 1.018 2.9439 2.175 1.392 1.157 2.6232 2.4517l1.1913 1.3301q0.70245 0.01221 1.1284 0.03101-1.5234-2.1048-3.1336-3.9124l-1.6322-1.7334-1.6754-1.5847-1.7192-1.4356-1.7626-1.2871-1.8064-1.1372-1.8496-0.9885-1.8998-0.83936m-85.581 5.2245-0.6897 0.25173q-2.7262 1.0071-4.9325 2.0264 0.7201 2.2715 1.358 3.9336 0.56159 0.71874 0.8523 0.94775 0.37225 0.333 0.79895 0.59131 1.542-0.92481 2.515-1.4182l0.22229-0.62474q0.39203-1.2698 0.36285-2.6966-0.01464-0.71385-0.1347-1.466-0.11603-0.75294-0.35247-1.5452m66.25 6.9982 0.5221 0.3208 0.54058 0.2976 0.55902 0.2737 0.5777 0.25 0.59595 0.2263 0.61444 0.2024 0.6333 0.1792 0.65173 0.15527 0.67005 0.13083q-1.4438-0.6379-1.7438-0.748-0.58812-0.2373-1.1857-0.4605-1.1921-0.4448-2.4353-0.8276m-62.249 0.74865-0.17322 0.07251q-0.69372 0.29394-1.3984 0.63064l0.00732 0.0017-0.07422 0.13524q0.4444-0.04444 1.211-0.1836 0.16523-0.25268 0.43476-0.65649l-0.00726 0.00171m69.608-9.3566-0.5489 0.00365q-2.155 0.0459-3.6556 0.5874-0.09485 1.2583-0.56958 2.407-0.23567 0.57519-0.56305 1.1218-0.10626 0.29029-1.1883 1.5808 2.68 0.8242 5.1818 1.9194 1.2524 0.5486 2.4637 1.1633l1.201 0.63281q1.1907 0.64915 2.3402 1.3667 1.8424-0.28515 2.8706-1.0142 0.55365-0.36915 0.98291-0.8577l0.39837-0.5183q0.36389-0.5481 0.61657-1.2146-0.22936-1.4282-0.54686-2.7302-0.21631-1.0115-0.92499-3.0603-1.5786-0.4922-4.2726-1.075-2.5004-0.33303-3.7852-0.31273m12.993 3.1985 0.00482 0.18797q0.09095 2.2893-0.37493 4.091 0.08153 0.4651 0.07203 0.58646 0.0025 1.2236-0.10115 2.9697 1.34-0.5115 1.5792-0.554l1.8997-0.3403q1.8728-0.31104 3.6374-0.5117 2.1785-0.2261 2.5921-0.2376-0.8534-0.83884-1.7866-1.6111l-0.95374-0.75464q-0.97357-0.73803-2.0272-1.4099-2.1041-1.3428-4.5417-2.416m-60.388 6.6144 0.22162 0.28464q0.87591 1.137 1.6339 2.262-0.08954-0.49806-0.23188-0.9934-0.07104-0.24685-0.15545-0.4937l-0.08777-0.2463q-0.09113-0.2466-0.19525-0.4922l0.00707 0.0022q-0.4561-0.10425-1.1922-0.32324m56.858 2.3839v0.00146q-0.15539 0.10523-0.31769 0.20457l-0.16381 0.09866q-0.16547 0.09667-0.33789 0.18724-0.34474 0.17994-0.71674 0.3347l0.0067 2e-3 0.40217 0.3027q0.62458-0.4631 1.0913-0.73656 0.01764-0.15184 0.04254-0.39477l-0.00659 0.00146m-91.169-6.1488-0.41126 0.4268q-1.6085 1.7075-2.6348 3.4131 1.4747 1.2024 2.123 1.8484 0.95912 0.98731 1.3292 1.4878 1.5945-1.5271 2.3573-2.0966-0.98827-0.8992-1.6157-1.9075l-0.08319-0.1821-0.37939-1.0218-0.68524-1.968m7.9734 7.2122-0.29723 0.2605q-1.2113 1.0327-2.7846 1.9316 0.72601 0.0686 1.4327 0.22586 0.88666 0.2163 1.0624 0.28588 0.35351 0.11182 0.70562 0.24586 0.84827-1.7173 1.5526-2.9177-0.77466 0.0378-1.6716-0.032m68.616-0.2738v0.00145q2.1432 2.8174 3.3638 5.1326 0.84374-0.10545 1.1532-0.1338 1.3106-0.0627 2.0228-0.06076 2.0353-0.00364 3.5434 0.13426 0.48475-1.6604 1.2139-2.5696-0.86743-0.66357-2.2898-1.6089-5.0526 0.37205-9.0075-0.89525m-20.38-6.9954-0.77905 0.01614q-4.4878 0.12402-7.6685 0.46176-0.53276 0.5674-1.1606 1.0735-0.26154 0.29054-2.056 1.3799-1.4191 0.8091-3.4553 1.4529 0.42615 1.3826 0.93585 3.7824 0.63086 0.82568 1.382 1.4585 2.7935 2.563 6.1387 2.5841 0.70013-0.01172 1.4243-0.15405l1.6406-1.0217 1.387-1.0935 1.1335-1.1648 0.87958-1.2356 0.62602-1.3084 0.3725-1.3796 0.11885-1.45-0.13489-1.5227-0.38159-1.5925-0.40284-0.2864m-61.047 9.3068-0.00402 0.07225q-0.06867 1.2329 0.3653 2.7742 0.84636-0.4746 1.0383-0.5698 0.64898-0.8706 1.1239-1.4182-0.55836-0.1365-1.1174-0.3201-0.27943-0.0923-0.5591-0.19676-0.13598-0.04494-0.84698-0.34154m74.044-5.8165-0.1485 0.00514q-1.0133 0.03416-2.0779-0.00636 0.19562 0.9602 0.48334 1.8521 0.18976 0.688 0.86243 2.1252 0.75395-0.13476 1.3153 0.35132 2.1734 2.169 4.7667 5.3786 1.369-0.3679 2.3685-0.5554-3.1103-5.2205-7.5698-9.1506m-29.972 6.1688-0.00641 0.04954q-0.02649 0.19946-0.05903 0.39916l0.00715 7.4e-4 -0.00579 0.19092q-0.00136 0.09714-0.02674 0.57104-0.01349 0.28516-0.07599 0.9368 0.36292 0.8486 0.75159 2.166l0.00494 9.7e-4 0.04194-0.25367 7e-3 1e-3q-0.05827-0.47243-0.1218-0.93483l-0.06514-0.46047q-0.06604-0.4587-0.13763-0.9077l-0.07275-0.4468q-0.07416-0.4443-0.15358-0.8796l-0.08043-0.4331-0.00733 0.0022m-35.395 2.7878-0.04588 0.00124q-0.18373-0.00174-0.3678 0.00513 0.35308 0.78073 0.823 2.1284 0.48705 0.0046 0.94872 0.0344 0.8106 0.0618 1.1469 0.11646 0.28265-1.0222 0.56073-1.7276l-0.33766-0.1145q-0.33806-0.1084-0.67748-0.1904-0.33942-0.0823-0.68066-0.1377-0.68189-0.11035-1.3699-0.1155m17.493-10.99-0.65326 0.5715q-2.5822 2.2285-7.1891 4.6709l-1.4012 2.2818q-0.6424 1.0926-1.1602 2.0898l-0.25134 0.4927q0.97815 0.6899 1.7323 1.4074 1.2545 1.2649 1.5679 1.836l0.12774-0.9019q0.1642-0.9106 0.47358-1.8557 0.30957-0.9448 0.76465-1.9226 0.87757-1.9143 2.4647-4.1299 0.16814-0.2041 0.3963-0.3391 4.2604-2.5176 6.4486-3.7637-1.9797-0.4314-3.3206-0.43724m-20.93 11.611-0.10096 0.03713q-0.4038 0.15137-0.80956 0.33814l-0.82666 0.43263 0.00738 0.00194q-0.47296 0.68776-0.65399 0.98606-0.24902 0.3958-0.47784 0.79446l0.40991-0.12329q0.40869-0.11792 0.81096-0.22317 0.40248-0.104 0.79896-0.1936 0.78931-0.1787 1.5699-0.2976-0.41796-1.1118-0.72814-1.7527m83.254 1.8852-0.25923-4.9e-4q-0.5188-7.3e-4 -1.0443 0.01393-0.26246 0.0068-0.52649 0.0171l-0.26447 0.01145-0.26547 0.01345q0.01417 0-0.0014 0.0012 0.23667 0.5547 0.5292 1.4287 0.63025 0.0852 0.87775 0.0974 0.33978 0.02517 0.66559 0.02736l0.40198-0.00536 0.39123-0.02393 0.38037-0.04102 0.36951-0.05935 0.3587-0.07566 0.34778-0.09448 0.33686-0.11206 0.32623-0.1294 0.3219-0.14624q-0.0896-0.48926-0.10907-0.79006-0.61976-0.0532-1.2489-0.0864-0.46912-0.03003-1.5878-0.04614m-74.213-0.54166-0.03987 0.11356q-0.15668 0.45361-0.27466 0.87744 0.52833 0.1809 1.026 0.40014 0.25073 0.11086 0.49743 0.23072l0.2458 0.12254q0.24512 0.1248 0.4859 0.26-0.14746-0.2241-0.3249-0.44846-0.17736-0.22264-0.38463-0.44554l-0.21497-0.2229q-0.2221-0.22243-0.47436-0.4441-0.24854-0.22267-0.54174-0.4434m-26.543-14.684-0.09545 4.6e-4q-0.38043 0.00295-0.73585 0.0547l-0.88652 1.6365-0.65138 1.675-0.40832 1.7146-0.16522 1.7544 0.07744 1.7932 0.32063 1.8313 0.56342 1.8718 0.80652 1.9106 1.0496 1.9492q1.8086 0.03223 5.6133 1.0335 0.9698-0.8052 1.6871-1.3174-0.12066-0.9846-0.1867-1.9846-0.0672-0.49-0.0752-3.0362 0.01581-1.0246 0.08649-2.0649l0.08398-1.0437 0.14563-1.3889q-1.2899-1.4556-1.8874-2.5078-0.22271-0.292-0.85687-1.6946-0.22961-0.5574-0.36427-1.106-1.0359-0.47484-1.9649-0.74074-1.5894-0.3943-2.1561-0.34056m10.561 17.2-0.02613 0.0166-0.09075 0.0608 0.00756 0.0012 0.02394 0.1282 0.0073 2e-4q0.05177-0.12645 0.0857-0.207l-0.00762 0.00145m34.876-13.666v7.5e-4q-2.6221 1.4717-8.3298 4.8364-2.6597 3.8413-2.8846 7.0723l-0.00586 1.0608q0.06238 1.0427 0.39697 2.0193 4.75-1.7658 8.6214-1.9375 2.7656-0.06765 4.4056 0.38599 0.37909 0.07886 1.0782 0.31982 0.70448 0.38304 1.4218 0.84351 0.737-4.3089 1.9784-7.5217-0.90046-1.7915-3.1055-4.6933-2.1158-1.7024-3.5765-2.3862m82.009 3.1564 0.23748 0.3755q0.91559 1.449 1.7787 3.2742l0.39007 1.1384 0.30683 1.1126 0.22357 1.0857 0.14032 1.0608 0.05738 1.0337-0.02613 1.0078-0.10919 0.98169-0.19258 0.95557-0.27562 0.92993q2.001-0.58813 3.5665-0.69773-0.09498-0.71267-0.24775-1.4368-0.15283-0.72387-0.36377-1.4604-0.06915-0.36036-0.76269-2.2332-0.49054-1.3091-1.6327-3.4536-0.09795-0.1931-0.67261-1.1816-0.83978-1.4256-1.4411-2.3952l-0.97668-0.0972m-125.29 12.816 0.04906 0.0605q0.19667 0.2417 0.39934 0.47853 0.12054-0.14333 0.32092-0.36889l0.00769 9.6e-4q-0.4769-0.11253-0.77701-0.1711m81.558-1.09-0.26557 0.13843q-1.0581 0.56937-2.0601 1.3963 0.34052 0.2463 0.78497 0.7009 0.214 0.04834 0.7928 0.219 0.05962-0.5884 0.21532-1.1384 0.07782-0.27517 0.17975-0.54077l0.10773-0.2637q0.11395-0.2602 0.25183-0.5117l-0.00671 0.0015m20.923 0.76-0.11847 0.0515q-0.47528 0.2009-0.9809 0.34594 0.84638 0.54736 2.0674 1.5147-0.24756-0.43507-0.46503-0.8611l-0.20984-0.4238q-0.24658-0.5249-0.28656-0.6272l-0.00665 0.0017m27.778-11.611 0.22913 0.3894q1.8578 3.263 2.716 5.7522 0.95306 2.6489 1.2862 5.1621 2.1016 0.1089 3.9962 0.6818 0.94867 0.2854 1.8493 0.68797l0.88788 0.43093q0.87628 0.45896 1.7038 1.0354-0.39154-1.1421-0.92371-2.2913-0.95445-1.97-1.6007-2.9741l-0.71698-1.5462-0.77289-1.3052-0.88838-1.1944-1.0042-1.0831-1.1197-0.9714-1.2355-0.8606-1.351-0.7488-1.4667-0.6384-1.5888-0.5264m-37.068 11.389v0.00123q0.19458 0.31934 0.38234 0.64063l0.18578 0.32104q0.18408 0.32105 0.36139 0.64233 0.35423 0.64207 0.6806 1.2844-0.06147-0.56346-0.15631-1.127-0.04736-0.2822-0.10316-0.56396-0.0227-0.13989-0.18615-0.84424l0.00665 0.0022q-0.43902-0.1206-1.1711-0.3567m-18.128-16.536 0.09833 1.6987q-0.07056 4.988-4.5281 8.6572-1.4392 1.1992-3.552 2.3467-1.1704 0.3391-2.2992 0.37623-3.4843 0.224-7.0104-2.1976 0.11011 0.7124 0.06109 0.89405-0.21812 1.4648-0.67169 3.4048 1.8953 0.18797 1.883 0.34912 3.7786 2.2034 5.3617 3.725 2.3324-1.8476 5.7588-2.8137 2.9094-0.71484 3.8041-0.7571 1.1039 0.05935 2.3154 0.4014 0.83679-0.813 1.7116-1.4714 2.2206-1.5091 2.7106-1.6245 1.8607-0.85181 3.888-1.0828l-1.0106-0.94924q-0.96497-0.98266-1.7474-2.0952-0.78235-1.1123-1.382-2.3548-1.2029-2.4856-1.6619-5.4917-1.5601-0.22923-3.729-1.0151m-22.749 18.258-1.3e-4 0.00195q-0.34894 0.04541-0.88593 0.14942 0.32726 0.30153 0.77894 0.79199 0.04832-0.31296 0.08288-0.62816l0.03144-0.3152-0.00733 0.00195m-35.311-2.6518v1e-3q-1.0109 0.13645-1.4634 0.238-0.59656 0.12086-1.2111 0.28175l0.66595 0.64285 0.34675 0.3203q0.35302 0.3198 0.72918 0.63866 0.74994 0.63794 1.6057 1.271 0.00274-0.24829-0.01588-0.6416l0.00758 4.9e-4q-0.36854-1.7473-0.66487-2.7524m6.7749 0.7954 0.0368 0.18214q0.08106 0.35886 0.22424 0.66992 0.02625 0.0852 0.25007 0.43921 0.63165 0.81079 1.3728 1.6308 0.66374-0.3955 0.82476-0.4748 0.13897-0.39505 0.21826-0.658l0.0072 0.00124-0.30438-0.24584q-0.30689-0.2395-0.62439-0.45656-0.31725-0.21584-0.64502-0.40918-0.65198-0.38576-1.3603-0.67896m97.732-12.248-1.0162 0.03075q-4.1152 0.16895-9.0214 1.0982l-1.5348 0.5874-1.0954 0.51195q-0.10485 0.72875-0.34862 1.7744 1.8541 1.6575 4.4682 4.7209 3.5042 1.6267 6.6326 4.1065l0.94598 0.79884q0.77277 0.97387 1.7538 2.3118l0.94909-0.99316 0.77393-1.0508 0.59826-1.1076 0.42286-1.1648 0.24743-1.2224 0.07185-1.2788-0.1036-1.3362-0.27886-1.394-0.44812-1.4509q-1.6079-3.2112-3.017-4.9419m-123.76 14.957 0.04077 0.06155q0.16395 0.2436 0.3327 0.4897l0.05195 0.0708q0.20867 0.282 0.44994 0.5601l0.05486-0.10525 0.00783 9.5e-4q-0.21289-0.2331-0.42041-0.47214-0.15722-0.17726-0.50989-0.60571l-0.00775 9.5e-4m119.03-0.47104 0.20367 0.3916q0.80286 1.5671 1.4231 3.1247 0.49365-0.15355 1.2955-0.48924l-0.60083-0.80686q-0.22594-0.303-0.77814-1.0147l0.00647 0.00124q-0.92767-0.76564-1.5497-1.2068m-105.6-1.4755-0.09442 0.03735-0.33246 0.13405 0.00745 0.00144q-0.09082 0.2732-0.2143 0.70556 1.0917 0.6582 2.1529 1.4124 0.53241 0.37674 1.0609 0.77759l0.52759 0.4065q0.52655 0.41308 1.0492 0.84985 0.28638-0.07495 0.47656-0.1111-1.2186-0.91527-2.2676-1.8501-0.5246-0.4663-1.0068-0.9387l-0.4717-0.4722q-0.4572-0.47385-0.88732-0.9526m8.9283-1.6389 0.0625 0.2458q0.46038 1.907 0.49035 2.2388 0.04388 0.6726 0.02826 1.3337 0.00488 0.49876-0.13196 1.6348 0.98078 0.605 1.6418 0.9873 0.5259-0.54516 0.9687-0.8967-0.7058-0.8064-1.1631-1.3824-0.2802-0.3584-0.49547-0.76001l-0.19873-0.41211-0.16626-0.43237-0.13349-0.4541-0.10083-0.47536-0.06812-0.4963-0.03545-0.51784-0.00281-0.53856 0.00738 0.0012q-0.41742-0.05615-0.70275-0.0759m86.017-1.8351-0.11512 0.1587q-0.4649 0.6289-0.98785 1.1494 0.7948 1.8716 1.404 2.7771 0.71985 1.1719 1.6973 2.4404 0.72284 0.55374 1.448 0.9844l0.73211 0.4011q0.73585 0.3709 1.4868 0.61965 0.7511 0.24905 1.5173 0.37671l0.77008 0.09717q0.91474 0.05811 1.281 0.02757-0.84693-2.029-2.0353-4.0806-0.17665-0.34055-1.2696-2.0576l-0.9652-1.2329q-2.9346-1.2258-4.9634-1.6611m-64.144 3.4681-0.78699 0.01514q-3.1992 0.13989-7.2289 1.5852 0.8994 1.0762 2.1926 2.0495 0.4469 0.33837 1.0361 0.72267 1.1985 0.6653 1.9102 0.9961 0.36828-0.45265 3.1912-2.9512 1.3571-1.143 2.8386-1.9973-0.46961-0.15796-1.6896-0.3313-0.70684-0.083-1.4631-0.08887m-35.531 2.8074-0.20289 0.16334q-0.80706 0.65456-1.5378 1.3091 0.78571 0.51906 1.1326 0.72096 0.46118 0.27784 0.94013 0.53809 0.00402-0.62425 0.01928-0.89015 0.00177-0.08934 0.0304-0.531l0.0133-0.1777 0.00744 0.0019q-0.2515-0.69114-0.39483-1.1345l-0.00762 0.0017m3.8126 1.4795v5e-4q0.22003 0.51806 0.45935 1.0303 0.17413 0.38647 0.6286 1.2737 0.54065-0.5437 0.9339-0.84475-1.2209-0.93845-2.0218-1.4597m37.572 0.2886-0.32599 0.28807q-1.3202 1.1438-2.9041 2.1587 0.4685 0.03564 0.74523 0.03494l0.34241-0.00394q0.33936-0.01026 0.66633-0.04712 0.97765-0.11108 1.8588-0.45849-0.10906-0.42215-0.19501-0.85815-0.14325-0.76905-0.18005-1.114l-0.00757 0.0017m-13.016 1.8367 0.05096 0.09744q0.20318 0.3913 0.3894 0.7883 0.32147-0.0261 0.8291-0.08984-0.55688-0.30982-0.53979-0.30716-0.2901-0.186-0.72247-0.48874l-0.00733 0.00124m-5.5706-2.7979-0.11505 0.0574-0.22656 0.11255 0.00746 0.00171q-0.10603 0.24829-0.21803 0.48999l-0.29004 0.59255q1.0361 0.88694 2.1099 1.6545 0.90308 0.6282 1.0906 0.73684l0.22765 0.0205q-0.23547-0.41994-0.49365-0.83349-0.25806-0.41505-0.53888-0.82325l-0.28656-0.40746q-0.58051-0.81154-1.2669-1.6018m35.52 3.4518-0.06123 0.02687-0.0487 0.02243 0.00684 0.00125q-0.10504 0.10815-0.20124 0.22485-0.09612 0.1145-0.18322 0.2361-0.0871 0.1211-0.16534 0.24754-0.07794 0.12696-0.14728 0.25906l-0.0669 0.13425q0.37152 0.01805 0.71808 0.0564 0.60822 0.07275 0.85681 0.12575-0.02661-0.07423-0.20202-0.44655-0.0727-0.14819-0.15223-0.29685-0.0796-0.148-0.16638-0.29617-0.08662-0.14773-0.18012-0.29493l-0.00707 0.0015m-50.101 0.68345-0.01392 0.00515-0.11212 0.0488 0.00745 1e-3q-0.3252 0.239-0.51967 0.4104 0.8926 0.20164 1.4812 0.3093-0.27772-0.26464-0.55652-0.52075l-0.279-0.2539-0.00744 9.5e-4m41.624-6.7807-0.13037 0.36231q-0.52851 1.4343-1.1696 2.6318-0.12202 0.5625-0.41492 1.4373 0.53272 0.99754 0.89307 2.0632 0.11579 0.2561 0.45728 1.6362 0.12275 0.5581 0.20581 1.1331 1.1605-0.7666 2.2389-1.2446 0.8811-0.2793 1.7684-0.45485 0.05718-0.2881 0.55353-1.5588 0.21081-0.4976 0.45703-0.96804 0.48828-0.93872 1.1316-1.7656-0.80163-0.70434-1.7753-1.3967-0.48651-0.3469-1.0162-0.68896l-0.54053-0.34277-0.56164-0.34057-0.58314-0.34034 0.00696 7.4e-4q-0.93194-0.1267-1.5209-0.16334m15.815 3.4425v0.00146q-2.5792 0.69654-4.5072 1.4702 0.5014 0.84301 0.8219 1.7088l0.1513 0.43505q0.14112 0.43605 0.24035 0.87841 0.09907 0.44144 0.15644 0.8899 0.34736 0.21508 0.83698 0.6184 0.25958-1.2813 0.74426-2.6089 0.24232-0.66384 0.54102-1.3406l0.3125-0.678 0.3407-0.68406 0.3689-0.69067-0.0071 0.00146m15.208-6.6609-0.71637 0.35962q-0.67554 0.37061-1.1886 0.78954l-0.47235 0.4302q-0.43207 0.4426-0.70148 0.9316-0.26929 0.4888-0.3764 1.0254l-0.06629 0.5486 0.11963 0.5034q1.4866 0.626 2.7684 1.4368l1.2378 0.85717 1.1417 0.94946 1.0463 1.0415 0.95075 1.1338 0.85473 1.2258 0.75928 1.3188 0.6637 1.4106 0.35847-0.53515q0.29113-0.79664 0.6256-2.0474-0.37824-1.2402-0.86957-2.4817l-0.51965-1.2419q-1.6466-3.7258-4.2968-7.4597-0.80633-0.1565-1.3187-0.19656m44.2 4.6338-1.0766 0.15821q-4.153 0.76953-5.8459 3.7373 1.5192 2.2654 3.2654 5.7009l0.72436-1.0027 0.64497-1.0186 0.56567-1.0351 0.48633-1.0498 0.40716-1.0667 0.32777-1.0818 0.24834-1.0979 0.16919-1.1142 0.08337-1.1297m-85.466 8.487-0.37495 0.00144-0.36835 0.0122-0.3617 0.02002-0.3549 0.02954-0.34846 0.03955-0.34167 0.04905-0.33539 0.05764-0.32838 0.06736-0.32177 0.07644q0.36591 0.04126 0.72077 0.07276l0.3596 0.02954q0.36043 0.02806 0.7245 0.04736l0.3651 0.0176q0.3658 0.0151 0.7356 0.0217 0.34968 0.0078 0.78266 0.00587 0.40979-0.00197 0.83794-0.01367l0.3716-0.4265 0.00714 9.6e-4q-0.10414-0.01536-0.60449-0.05786-0.19922-0.0154-0.39502-0.0266-0.39148-0.02174-0.76983-0.0244m-52.506-9.9297-0.30974 0.7673-0.17304 0.85866-0.03602 0.95239 0.10048 1.0446 0.2373 1.1372 0.37415 1.231 0.5108 1.3228 0.64747 1.416 0.78435 1.5085q0.92305-2.1245 1.8905-3.4678-0.0398-0.81958 0.04084-1.3432-1.0409-0.9209-1.7828-1.8963-1.2068-1.7109-2.2842-3.5312m65.98 10.846-0.0235 0.00707-0.0294 0.00853 0.00683 0.00123q-0.19257 0.09007-0.37341 0.18262-0.18079 0.09325-0.34998 0.18655-0.0918 0.0454-0.48084 0.2844-0.15154 0.0962-0.2912 0.19214 0.3435 0.33252 0.6438 0.68042 0.08057 0.08474 0.43915 0.53174 0.14112 0.1802 0.27465 0.3645-0.00524-0.3589 0.0174-0.7107 0.0351-0.438 0.05054-0.5237 0.02216-0.17283 0.05109-0.344l0.0072 0.00174q0.03157-0.53467 0.06477-0.86184l-0.0071 1e-3m3.9558-0.5663 0.04438 0.35963q0.21075 1.4575 0.93652 3.2371 0.41571-0.6472 0.76378-1.3298 0.17408-0.3416 0.33107-0.6917l0.15289-0.3528q0.14856-0.35593 0.28027-0.7192l0.01361 0.0012q-0.25647-0.104-0.52319-0.1853-0.26685-0.0823-0.54375-0.1426l-0.27955-0.0559q-0.56061-0.1013-1.176-0.1206m60.215-0.6128 0.09417 0.59816q0.3844 2.3586 0.89301 4.1721 0.40087-0.3594 0.9967-0.9343-1.083-2.3162-1.9839-3.836m-38.562-4.1921v0.0012q0.81854 2.2046 1.9409 4.2322l0.58032 1.0019q0.59906 0.99147 1.274 1.9383 0.67493 0.946 1.4258 1.8484 0.14051-0.128 0.79486-0.8516l-0.41308-1.1592-0.47699-1.0962-0.54046-1.0342-0.60413-0.97044-0.66779-0.90773-0.73114-0.84497-0.79529-0.7815-0.8584-0.72-0.92871-0.6562m-84.332 2.2484 0.03796 0.136q0.11896 0.4067 0.3031 0.8081l0.18804 0.37865 0.32387 0.58545q0.28553 0.88794 0.54503 1.467 0.2865 0.65256 0.65486 1.2908 0.36828 0.6384 0.81848 1.2634l0.47064 0.6204q0.49102 0.6172 1.064 1.2202 0.9366-0.2058 2.5377-0.9883-0.02343-0.9775 0.06934-1.9758 0.01367-0.40185 0.17664-0.83545-0.26374-0.80935-0.23432-0.76515-1.8124-0.665-3.386-1.3711-0.78704-0.35374-1.5142-0.71775-0.39684-0.17505-2.0551-1.1164m-1.9587 3.0742-0.13026 0.2976q-0.50524 1.1873-0.75671 2.3733 0.35382 0.3384 0.70447 0.626l0.35723 0.2754q0.36042 0.2637 0.73279 0.4763 0.74472 0.4277 1.5374 0.656-0.72101-0.9863-1.2754-2.01-0.27704-0.5122-0.51264-1.0335-0.2357-0.52148-0.42962-1.0527l-0.18328-0.5327 0.00756 1e-3 -0.044-0.0767-0.00756 0.0017m78.151-8.0226-0.09686 9.6e-4 -0.79779 0.0232 0.00685 0.00196q-0.25618 0.34374-0.64918 0.93018l-0.65485 1.117q-0.61334 1.1067-1.058 2.1714l-0.40236 1.0544-0.31811 1.0327-0.23358 1.0122-0.14887 0.99072-0.06482 0.96995 0.01959 0.9495q0.78095 1.3381 1.5882 4.1511 0.94935-0.6499 1.7081-1.303 0.75879-0.6528 1.327-1.31l0.52082-0.657 0.42523-0.6594 0.3302-0.6609 0.2348-0.6636 0.13959-0.6638 0.21253-1.2996 0.13073-1.1528 0.06024-1.0781-0.00982-1.0027-0.08045-0.92775-0.15051-0.8523-0.22126-0.77661-0.2912-0.7019-0.3618-0.62674 0.00683 0.0015q-0.69043-0.07276-1.1713-0.07056m-19.705 13.623 0.07093 0.0932q0.28827 0.3723 0.6488 0.7581l0.0058 7e-4 -0.06573-0.1636q-0.06708-0.1623-0.13947-0.3225l0.00683 7e-4q-0.20239-0.1396-0.52008-0.3666l-0.00708 0.0019m63.625-10.074-0.1701 0.0747q-0.68056 0.2932-1.3536 0.5205l0.3343 1.221 0.27063 1.2173 0.21374 1.2144 0.15693 1.2107 0.0998 1.2083 0.04296 1.2041-0.01398 1.2019-0.07086 1.1982-0.12769 1.1951q0.7735-0.5042 1.894-1.3189-0.47447-1.3891-0.85589-3.0549-0.19043-0.8335-0.35808-1.7356l-0.16145-0.91944q-0.15595-0.93701-0.28888-1.9439-0.02039-0.15526-0.00843-0.312 0.03846-0.3435 0.07154-0.5549 0.01397-0.1253 0.12262-0.71585 0.0913-0.46775 0.20892-0.91065l-0.00652 0.0017m-95.872 1.7301v0.00124q-0.23346 0.18336-0.62072 0.44626l0.70196 1.2339 0.73926 1.1756 0.78448 1.1174q2.4197 3.2664 5.6464 5.4954l-0.03907-0.5814q-0.01026-0.5786 0.09477-1.1452 0.10505-0.5681 0.32515-1.1238 0.43683-1.1126 1.3492-2.1794-0.06006-0.3609-0.13423-0.7193l-0.19994-0.8894q-1.9652-0.91234-3.1304-1.6562-2.0065-0.19777-5.5169-1.1751m70.333 5.077-0.09741 0.1375q-0.39002 0.5471-0.7901 1.064l0.00676 0.0019 0.1111 0.4849 0.10308 0.4949q0.09906 0.4982 0.18195 1.0129l0.07922 0.5173q0.07495 0.5222 0.13385 1.0591 0.04895 0.408 0.12244 1.3491l0.20434 0.1572 0.06635-0.6975 0.0484-0.6965 0.03047-0.6975 0.01262-0.6975-0.00555-0.6978-0.02327-0.698-0.04125-0.698-0.0592-0.6972-0.07733-0.6988-0.00647 0.0018m-26.837-0.5723-0.19965 0.468q-0.82214 1.8591-2.0292 3.4929 1.0137 1.2644 1.6512 2.0205 1.6403 0.5098 2.6792 0.7141l0.66808-0.3466-0.29088-0.5237q-0.27796-0.5264-0.50489-1.0637-0.22673-0.5364-0.40228-1.085-0.17555-0.5491-0.2998-1.1072l-0.11152-0.5615-0.08575-0.5669 0.00702 0.0017q-0.6106-0.9687-1.0815-1.4426m58.387 4.0017-0.11927 0.1057q-0.47961 0.4265-0.98822 0.8452l0.00623 1e-3 0.2124 0.4038 0.21936 0.3753 0.22608 0.3456q0.22967 0.3306 0.4727 0.6011 0.48628 0.542 1.027 0.8467-0.0907-0.3855-0.19294-0.7737-0.26581-0.9736-0.33264-1.1716-0.11962-0.3923-0.2508-0.7874-0.13098-0.395-0.27362-0.7917l-0.00628 1e-3m-44.611-9.9834 0.00842 0.51707q0.00305 2.0947-0.47087 4.6448l-0.20082 0.94216q-0.26148 0.9358-0.76556 1.8464-1.5126 2.7334-5.209 5.2439 0.32434 0.0435 1.7841-0.0437 1.0829 0.061 2.259-0.0022l1.1293-0.1142q1.1176-0.1556 2.1883-0.4747 1.0709-0.3198 2.095-0.8029l1.0122-0.5242q0.9975-0.5649 1.9615-1.2939-1.6652-1.9835-2.9931-4.1668-0.66375-1.0913-1.2432-2.2332l-0.55828-1.1546q-0.53392-1.167-0.99707-2.384m26.483-0.45095 0.91284 1.2968q1.7748 2.6528 3.1389 5.7925 0.68213 1.5698 1.2615 3.2612 0.48944 1.3499 1.2361 4.1868l1.472-0.7812q0.32349-1.3406 0.48407-2.6915l0.11963-1.3542q0.23687-4.0698-0.9939-8.2395-1.423 0.229-3.6648-0.09156-2.0146-0.35254-3.9663-1.3794m-89.422 9.1-0.04071 1e-3q-0.30518-0.0034-0.71503 0.0281 1.3318 1.2785 2.2538 2.0691l0.83441 0.8056q0.3819 0.3557 0.77624 0.6939 0.57758 0.5266 2.0502 1.584-0.26746-0.9339-0.55286-1.7542-0.14264-0.4106-0.29004-0.7925-0.07086-0.2085-0.45234-1.083l0.00733 2e-3 -0.34673-0.3242q-0.35694-0.3035-0.75574-0.5323-0.39881-0.2287-0.83924-0.3823-0.88116-0.3071-1.9294-0.3152m115.29-13.856-0.09374 1.5361q-0.62756 6.0933-5.2921 11.306 1.294 2.9778 2.1098 7.4165 3.2384-1.8252 7.3816-0.7274 5.1034-6.4116 5.2401-13.074l-0.03681-1.669q-0.85852-0.96945-1.795-1.7456l-0.95563-0.72605q-2.9225-2.0346-6.5582-2.3172m-97.424 16-0.0213 0.2653q-0.13666 1.4961-0.32953 2.3709 1.199 0.4727 1.7324 0.6394 0.70618 0.2353 1.4384 0.4375l-0.30864-0.3572q-0.3061-0.3596-0.60213-0.73-0.2962-0.3693-0.58239-0.7497-0.28608-0.3804-0.5622-0.7715l-0.7572-1.1047-0.00745 0.0014m28.527 3.6085v0.0013q0.14703 0.1897 0.24377 0.3122l0.25202-0.0813 0.00695 2e-3 -0.06152-0.0732q0.00355 0 0.0069 0-0.26947-0.0967-0.4411-0.161l-0.00702 0.0013m-67.96-3.6974 0.07599 0.4871q0.34674 1.9504 1.3831 3.8967 1.2894-1.0967 1.9437-1.5584 0.83685-0.6184 1.7686-1.229-1.3049-0.0095-2.4189-0.3257-0.57174-0.1584-1.1253-0.3928l-0.54889-0.2549-0.53992-0.2924-0.53845-0.3306m53.16-6.3377-0.17847 0.22556q-0.6856 0.8682-1.6197 1.8648-0.36817 0.3415-0.86676 0.4016-4.6635 0.3008-9.6842-0.8567-0.01158 0.5691 0.47236 1.8757 0.4878 1.0835 1.3847 2.2796 2.1202 2.9956 4.912 5.323l1.3139-0.7381q1.2577-0.7644 2.2928-1.6355 2.07-1.7446 3.2481-3.9172l0.53334-1.1145 0.42896-1.1658 0.03747-0.3391q-1.4761-1.269-2.2746-2.2034m-39.328 7.8135 0.10022 0.2551q0.41162 1.0184 0.9975 2.0132 1.0128 0.5452 1.6951 0.8843-0.64508-0.6228-1.2669-1.3154-0.31115-0.3457-0.61608-0.7093l-0.30382-0.3676q-0.30207-0.3716-0.59846-0.7603l-0.00751 0.0012m-5.4147 1.6526-0.26256 0.1587q-1.0435 0.6306-1.9661 1.2666 0.41211-0.039 0.83417-0.072 1.0643-0.0757 1.2891-0.083 0.87047-0.0447 1.7958-0.062-0.39148-0.2644-0.76753-0.532-0.28624-0.2002-0.9151-0.6758l-0.00774 0.0012m48.356-2.6342-0.34565 0.5544q-1.4311 2.1897-3.6424 3.96 0.71935-0.0079 1.9014-0.0645 1.077-0.3664 2.0742-0.7751 0.76666-0.295 2.3751-1.0894-0.65746-0.5942-1.1956-1.1711-0.43396-0.4378-1.167-1.4143m43.169-17.41 0.09925 0.84885q0.3311 3.3977-0.39814 6.8235 0.43128 1.5025 0.69757 3.0056 0.26977 1.5026 0.38831 3.0073l0.08038 1.5054q0.08558 3.01-0.43462 6.0268 1.3661 0.7808 1.7236 0.8482 0.6283 0.2275 1.3308 0.3803 1.4058 0.3074 3.1095 0.3198 2.567 0.148 8.1889-1.1721 0.09498-0.0544-1.2123-4.3034l-1.0961-2.8826-1.2675-2.6765-1.4388-2.47-1.6101-2.2642-1.7816-2.0586-1.9529-1.852-2.1241-1.6465-2.3022-1.4399m-26.223 22.119 0.07183 0.074q0.28772 0.2942 0.57594 0.5813-0.0223-0.2256-0.06135-0.5723l0.0069 5e-4q-0.22498-0.0295-0.59332-0.0835m-44.138-5.0174 0.20728 0.4987q0.80096 2.0406 1.1371 4.802 0.98011 0.4256 1.62 0.6602 0.60211-0.3228 1.1342-0.7617 0.26592-0.219 0.51422-0.468 0.1314-0.106 0.7129-0.8103-1.2951-0.7217-2.4895-1.5765-0.59724-0.4274-1.1694-0.8877l-0.56572-0.4689q-0.55585-0.4773-1.1011-0.9878m31.119 5.4841v5e-4q-0.19708 0.1025-0.39746 0.2033-0.20018 0.1016-0.40398 0.2005l-0.2046 0.0984q-0.41083 0.196-0.83496 0.3843 0.64893-0.1414 1.7039-0.3904 0.05878-0.1905 0.14416-0.4966l-0.00702 0.0017m-43.369-6.9385-0.15033 0.0513q-0.6029 0.208-1.2396 0.4668l1.0622 1.3459 1.0912 1.2217 1.1276 1.0967 1.1642 0.9729 1.2007 0.8486 1.2374 0.7249 1.2736 0.6008 1.3102 0.4763 1.3467 0.3526 0.35627 0.0481q-2.2025-1.2615-4.1473-2.8946l-0.64112-0.5547-2.9718-2.7438q-0.64276-0.5916-2.02-2.0135m22.5 7.5247 0.0625 0.1399q0.24933 0.553 0.4942 1.0537 0.40064-0.1028 0.79511-0.218 0.19726-0.0576 0.393-0.1182l0.59106-0.1885q-0.53063-0.1316-1.0494-0.2778-0.25947-0.074-0.51617-0.1511l-0.77027-0.24m-3.0931 0.4416v0.0017q-0.19403 0.2268-0.51819 0.5518 0.52259 0.1174 0.85028 0.1853-0.19804-0.4426-0.32476-0.7388l-0.00733 0.0017m33.877-0.3682-0.06738 0.029-0.23725 0.1013 0.00708 8e-4q0.52282 0.5593 0.88086 0.9243l0.88501 0.458q-0.32525-0.3267-0.65002-0.6619-0.24396-0.249-0.81123-0.8515l-0.00707 0.0019m21.739-4.8564-1.1484 0.8449-1.1802 0.7454-1.2113 0.6457-1.2427 0.5457-1.2741 0.446-1.3053 0.3462-1.3369 0.2469-1.3681 0.1467-1.3995 0.0476q0.77435 0.6514 1.5757 1.2378l0.81482 0.5688q0.82507 0.5535 1.6909 1.0423 1.7316 0.9763 3.6257 1.6933 1.1827-0.6064 2.125-1.2741 2.8271-2.0015 3.4935-4.5413l0.16882-0.8611q-0.82746-0.7051-2.028-1.8808m56.614-7.5964-0.26122 1.2258q-1.1959 4.8979-4.8122 9.6616 1.6859 0.8345 3.2637 2.0413 1.2976 1.6565 2.2694 4.0351l0.63825-1.5786 0.46582-1.6553 0.29388-1.7314 0.12177-1.8084-0.0503-1.8855-0.2226-1.9614-0.3946-2.0381-0.567-2.114-0.74488-2.1912m-89.849 15.708-0.25177 0.0537q-1.0062 0.2148-1.9927 0.3994l0.00726 0.0015q0.26434 0.0979 0.896 0.3149 0.36212 0.1226 0.73017 0.2397 0.25133-0.3811 0.3518-0.5515l0.20105-0.3415 0.0653-0.1162-0.00708 0.0017m-39.614-0.5813 0.26984 0.1762q1.0776 0.7007 2.1326 1.3455l-0.19482-0.1738q-0.19964-0.1721-0.42016-0.3379-0.2204-0.1643-0.46155-0.3225-0.24109-0.1575-0.50299-0.3081-0.26172-0.1509-0.54408-0.2942l0.00746 5e-4 -0.28632-0.0857m77.526-3.5429-0.25586 0.7159-0.31744 0.6965-0.3791 0.6765-0.44048 0.6567-0.50208 0.6377-0.56354 0.6172-0.62494 0.5982-0.68664 0.5783-0.74829 0.5581 0.37805 0.0801q0.49707-0.2385 0.94427-0.5344 0.89417-0.5938 1.5883-1.4168l0.3346-0.4267 0.30969-0.4556 0.29138-0.4829q0.30573-0.9661 0.41266-1.3799l0.28632-1.1047-0.02692-0.0142m-19.579 0.9817 0.02057 0.2586q0.08013 1.0385 0.12365 2.1413 1.6976 1.4165 2.7746 2.1878 2.3316 0.6401 3.6349 0.8513l0.73326-0.2407q-1.7822-0.8911-3.4183-2.0174-0.81806-0.5627-1.5994-1.185l-0.77257-0.6358q-0.75983-0.6508-1.4967-1.3601m22.232 0.938-0.04975 0.179q-0.54693 1.9541-0.70428 1.9787-0.69802 1.2498-1.6065 2.2266 2.9544 0.2236 4.0532 0.2576 1.5255 0.0676 2.9016 0.0786 1.1977 0.0085 2.2824-0.0264l1.0563-0.0461q3.0811-0.169 5.1568-0.7286 1.3092-1.4296 1.7967-3.0896l0.10266-0.4189q-5.011 1.2053-9.0201 1.0327-3.4644-0.1655-5.9689-1.4436m-73.957 3.1781v1e-3q0.20337 0.3938 0.23547 0.4758 0.07295 0.1624 0.13873 0.3269 0.13166 0.3298 0.23414 0.6729l0.00458 5e-4 0.12585 0.3413q0.29791-0.2923 0.54638-0.6228 0.12421-0.1658 0.23609-0.3411 0.11194-0.1758 0.21168-0.3608l0.09636-0.1873 0.00727 2e-3q-0.69849-0.1009-1.8366-0.3084m40.156-2.6913-0.33795 0.0967q-1.3496 0.3866-2.6674 0.7272-0.41455 1.1596-1.3135 2.7458 1.1204 0.2613 2.2746 0.4756l1.17 0.2024q1.1818 0.1903 2.4116 0.3326 2.4601 0.285 5.1126 0.379-2.0312-1.8479-3.1026-2.9698-1.5015-0.7925-3.5474-1.9895m-68.997 2.37-0.05542 0.0337-0.74236 0.4731-0.12807 0.1414-0.08905 0.1704-0.05018 0.2-0.01103 0.2297 0.02795 0.2588 0.06696 0.2881 0.10577 0.3186 0.14508 0.3467 0.00464 5e-4q0.09193-0.5528 0.24707-1.1009 0.07746-0.2732 0.17076-0.5463 0.09346-0.2725 0.20265-0.543l0.11305-0.2708-0.00782 0.0012m145-3.0464-0.08014 0.0894q-0.04162 0.2105-1.3913 0.958-1.0323 0.5351-2.1035 0.7592-2.2678 0.4302-4.3746-0.3176-0.02149 1.9448-0.19416 3.1513 0.83527 0.5752 2.0282 1.1563 1.576 0.7285 2.0024 0.8764 0.73693 0.2928 1.5666 0.5882 1.2001 0.2911 1.6864 0.3319 0.65979 0.0832 1.3005 0.0881 0.2912 0.04 1.6577-0.1245 1.6211-0.2634 3.1185-1.0745-0.2367-1.1054-0.68341-2.1672-0.22357-0.5308-0.49909-1.0505-0.10833-0.2669-0.93933-1.5342-1.9432-1.2927-3.0948-1.7303m-130.12 0.1443-0.94824 8e-4q-3.7454 0.0268-6.7427 0.5083l1.1741 1.1531 1.2241 1.0461 1.282 0.9416 1.3402 0.8358 1.3976 0.7307 1.4556 0.6252 1.5134 0.5203 1.5714 0.4148 1.6293 0.3095q1.5731 0.137 2.447 0.1309 1.4335 0.04 3.2538-0.2539-2.821-1.6231-4.9981-3.1096-2.5074-2.2767-3.6069-3.8099-0.79852-0.0317-1.9926-0.0437m39.52 3.534v7e-4q-4.6771 0.4902-8.4893 0.2986 2.2032 2.0461 3.3943 2.9492 0.72876 0.5698 1.471 1.0896 0.36272 0.2908 2.2571 1.4458 0.42725-0.1631 0.84589-0.3479 0.31641-0.133 1.0328-0.4966 0.79925-0.3217 1.2525-0.5383 0.5316-0.2517 1.0302-0.5388 0.4989-0.2864 0.9646-0.6089 0.25-0.1397 1.3309-1.0488-1.1974-0.4197-2.3343-0.9014-0.86616-0.3445-2.7558-1.3032m42.044 3.5504-0.53327 0.1853q-2.139 0.6975-4.9485 0.6765 2.2013 0.9055 4.4227 1.4153l1.112 0.2307 1.1141 0.1799 1.1172 0.1319 1.1195 0.0827 1.1221 0.033q0.7928 0.0144 2.0595-0.0667 2.8513-0.6608 5.1589-1.4748 1.8701-0.6929 2.1717-0.8516-2.9367 0.1555-5.8594 0.0457-1.047-0.0349-2.1529-0.0984l-1.1203-0.0698q-2.2672-0.1543-4.7834-0.4197m-54.492-3.5604-0.61256 0.0981q-3.8684 0.5386-7.4311 0.2583-0.40138 2.2127-1.1019 3.4343 1.6126 0.7076 3.1481 1.2593l1.5235 0.5125 1.4923 0.436q1.4768 0.3975 2.8909 0.6397l1.3987 0.2031 1.3673 0.1262 1.336 0.0483q1.2328 0.0323 3.0731-0.1982-2.5995-1.8333-5.1312-4.2544-0.68938-0.7234-0.8292-0.9333-0.5514-0.7054-1.1239-1.6299m20.816 3.2187-0.57006 0.6079q-2.3413 2.3665-5.6565 3.7178 2.1962 0.865 3.1647 1.1033 1.2837 0.364 2.6002 0.605 1.1137 0.1022 2.1359 0.1196l1.8575-0.0398 1.4996-0.1548 1.3973-0.2667 1.2946-0.3767 1.1923-0.4878 1.0899-0.5996 0.9873-0.7102 0.88483-0.8228 0.78925-0.9329q-3.082-0.1127-5.9255-0.4724-1.4214-0.1805-2.7833-0.4227l-1.3469-0.2583q-1.3284-0.2729-2.6112-0.6089m-58.502-4.9597-0.6435 0.9304q-2.3278 3.731-0.70514 7.5913 1.2615 0.8333 2.4444 1.4822l1.1717 0.603q1.1555 0.5574 2.2487 0.9312 1.0928 0.374 2.1227 0.5647l1.0144 0.1445q1.002 0.0994 1.9283 0.0154l1.821-0.3315q6.6112-1.3482 10.374-3.7454-3.2669 0.4885-6.6075 0.1179l-2.0617-0.3882-1.902-0.5139-1.8267-0.6484-1.7509-0.7866-1.6752-0.9207-1.5997-1.0583-1.524-1.1929q-1.4825-1.2617-2.8288-2.7947m124.47-7.0746-0.41546 0.2903q-1.6771 1.1577-3.5955 2.2634-0.86328 2.8628-2.3249 5.67-0.85187 1.2961-1.1765 1.4824-0.16388 0.2622-1.7551 1.208-0.68145 0.3572-1.4918 0.6533-1.8755 1.9175-4.9291 3.4431l-1.598 0.7381q-1.6707 0.7138-3.6328 1.33-1.916 0.6067-4.3074 1.1521-3.6025 0.3396-7.7008-0.3957 21.432 6.4197 32.736 0.7939 0.17498-1.6916 0.97595-3.0298 1.1749-1.9546 3.628-2.7922 0.2226-0.7427 0.47315-1.9341-1.786-2.1076-1.6118-3.6262-0.28974-0.4285 1.5667-2.438l-2.6214-2.0185-0.6855-0.6392q-0.51904-0.4543-1.5342-2.1509m-102.27 18.56-1.0582 0.5312q-4.3233 2.0645-11.046 3.23-1.3483 0.1706-3.1824-0.0469-1.7372-0.2283-3.6043-0.8872 0.91931 0.6643 1.847 1.1826 0.92785 0.5193 1.8642 0.8916l0.93903 0.3357 0.94318 0.2625 0.94727 0.1894 0.9517 0.117q1.1346 0.0705 1.5549 0.0341 0.59967-0.0249 1.2028-0.1062 1.2061-0.1613 2.4256-0.5512 0.60626-0.1944 1.2307-0.4456l0.76861-0.47q2.9711-1.9045 4.2157-4.267m124-3.6907-0.48779 0.195q-1.9606 0.7393-4.0823 0.792 0.32275 1.2881-0.20936 2.6368-0.31109 0.77-1.3842 0.8825-0.68483 0.0257-1.2399-0.6635-0.21967-0.3273-0.25464-0.7238-0.01868-0.3884 0.11884-0.8086 0.0221-0.209-0.0555-0.3955-0.28142-0.4497-0.4575-0.5149-0.2273-0.1555-0.5545-0.2903-0.7242-0.3569-2.989-0.6479-1.7671-0.2696-3.3835 0.0154-0.65937 1.7995-1.5247 3.3122-0.70563 0.6961-2.4222 1.759 0.3739 3.4749 4.4189 5.5081 3.5794 1.7756 7.5678 0.2438 0.86573-0.364 1.7056-0.9124l0.83362-0.5945q0.8241-0.6408 1.6344-1.4668 1.3229-2.4294 1.4477-2.8859 0.39514-0.9437 0.67401-1.8626 0.56103-1.8376 0.64429-3.5781m-56.793-81.584 0.10992 0.0049q6.5522 1.9669 10.691 4.8468 6.9213 5.4503 7.9979 8.8988 2.668 0.78445 5.1721 2.0618 1.3478 0.3308 7.1816 4.9424 4.5614 4.0352 8.5191 10.042 9.9784 1.5817 14.127 9.1444 4.1985 7.1179 4.7934 12.452 1.2435 0.99707 2.7165 5.2488 1.0328 1.8201 2.0784 9.2644-0.1558 6.9615-1.0111 8.0223-0.7763 2.3757-2.5416 4.841 0.08966 6.7498-3.4134 11.994-4.9404 5.5322-11.806 4.7406-3.9244-0.6819-6.8607-3.2657-2.6905-2.905-2.7478-4.6274-9.687 3.6458-20.563 1.8232-8.156-1.3715-14.731-3.4748-3.2875-1.0532-6.1796-2.2881l-8.1793-4.1128q-1.6476 3.3133-4.6374 5.1375-5.6827 2.6828-9.5419 2.2381-6.2258-0.144-12.101-3.3157-4.6956 1.5691-11.457 0.5135-4.8202-0.8408-10.245-3.2964-2.9844 11.622-15.111 12.341-7.3331-0.6152-11.709-4.8674-8.9893-11.322-8.207-12.059-1.8103-3.8941 6.0121-6.5642-2.7471-5.5498-2.0626-9.0261-3.4722-4.8777-4.5501-10.76-0.73126-2.971 1.8988-6.4258-3.6203-8.985-2.4248-11.861 1.3518-5.0195 2.3912-5.7503l7.8079-7.4477q3.4048-2.6677 5.9298-3.918 5.8768-2.823 8.5806-2.6726 1.0332-2.1838 4.2615-3.4713l19.805-6.3196q3.6578-0.98084 7.7481-0.84546 2.6819 0.07226 5.68 0.56776 4.6449-0.39344 10.698 0.0713 7.8589 0.66984 10.215 1.3523 7.5305-3.1689 15.665-4.1798"/> <path d="m930.07 1288.9v0.0012c0 2.4817-3.597 2.4705-2.0388 2.232l1e-3 9e-4c-6.2091 0.9495-176.17 1.677-384.37 1.677v1e-3c-208.21-1e-3 -378.17-0.7283-384.37-1.6792v1e-3c1.5503 0.2368-2.0364 0.2461-2.0364-2.2344v0.0012c0-2.4841 3.5963-2.4719 2.0386-2.2341l-7.3e-4 1e-3c6.2106-0.9519 176.17-1.679 384.37-1.679v1e-3c208.21-1e-3 378.18 0.7266 384.37 1.6772v1e-3c-1.5505-0.2385 2.0365-0.2478 2.0365 2.2322v0.0012m-4.4168-0.0012v0.0012c0 2.4456 3.4774 2.4026 1.7104 2.1316v0.0012c-5.7534-0.8843-175.1-1.6286-383.7-1.6286v9e-4c-208.6-9e-4 -377.93 0.743-383.7 1.6263l-7.9e-4 0.0012c-1.7754 0.27 1.7112 0.3152 1.7112-2.1341v0.0013c0-2.4475-3.4777-2.4053-1.7104-2.1341l-5e-5 0.0013c5.7556 0.882 175.09 1.6259 383.7 1.6259v1e-3c208.6-1e-3 377.93-0.7446 383.7-1.6279l7.4e-4 0.0012c1.7764-0.2722-1.7112-0.3179-1.7112 2.1316z"/> </g> <g fill="#ffb193"> <path d="m579.38 918.72c0.77649-2.2428 2.6656-3.6875 5.9037-4.4594 0.82141-0.19189 1.6787-0.42994 1.9132-0.53979 0.23462-0.11035 0.67836-0.21961 0.98826-0.25925 0.30935-0.04007 1.0534-0.2702 1.6531-0.5119 2.3498-0.9564 3.2942-1.2673 4.3865-1.4217 0.6361-0.0938 1.5859-0.2759 2.1285-0.4093 0.54164-0.1183 1.0979-0.2183 1.2261-0.20816 0.1438 0.01126 0.5399-0.10168 0.9067-0.24939 0.3665-0.14795 0.7304-0.26379 0.8268-0.2561 0.0957 0.00781 0.42604-0.09485 0.7451-0.2467 0.31704-0.13575 0.9092-0.28175 1.3134-0.29761 1.1035-0.08914 3.1017-0.47694 3.8492-0.75574 0.66384-0.2368 2.8909-1.0735 4.5697-1.6965 0.49856-0.18567 1.0327-0.41687 1.1702-0.51857 0.8347-0.562 4.0342-1.2565 6.1518-1.3281 0.7113-0.0238 1.5074-0.105 1.7558-0.18214 0.264-0.07532 0.7828-0.11426 1.1675-0.08336 0.99343 0.07994 5.5723-0.3264 6.2521-0.56227 0.31456-0.10327 0.98826-0.25893 1.4789-0.34853 0.49075-0.0898 1.4552-0.254 2.1409-0.3602 0.6869-0.1222 1.3927-0.27503 1.5605-0.3584 0.41726-0.17616 3.3512-0.3761 5.1702-0.343 1.7384 0.0267 3.0703-0.0922 3.9921-0.3246 0.3784-0.0983 0.94797-0.1658 1.2685-0.1399 0.32046 0.0259 0.98635-0.0337 1.4768-0.12354 0.49087-0.0896 1.6917-0.18666 2.6591-0.18946 0.9691-0.0189 1.8271-0.06274 1.9282-0.119 0.15065-0.0685 0.70155-0.105 4.2382-0.17616 2.6664-0.07604 3.6659-0.47964 3.5177-1.4425-0.0658-0.39244-1.0326-1.5984-1.2891-1.6192-0.07995-0.0061-0.3998-0.2415-0.6997-0.52346-0.29956-0.28198-0.83044-0.69534-1.1666-0.93238-1.0711-0.71436-2.7769-1.7542-3.0885-1.8919-0.15493-0.0765-0.4025-0.2096-0.5242-0.2999-0.75964-0.57703-2.9491-1.6234-3.8812-1.8595-0.39516-0.0961-1.0241-0.29175-1.4146-0.45203-1.0944-0.42627-4.9635-1.4299-5.8929-1.5042-0.4633-0.0537-1.1112-0.2186-1.453-0.3751-1.8937-0.9094-2.89-1.1508-5.1416-1.2185-5.1763-0.1897-7.2097-0.1593-7.9214 0.0736-0.3976 0.1293-1.3608 0.27746-2.14 0.3441-1.1518 0.08485-1.5839 0.05006-2.4028-0.1931-1.2931-0.3616-3.6953-1.7636-4.7598-2.7681-1.3784-1.3037-1.9254-3.121-1.402-4.6268 0.2689-0.73596 1.5635-2.0023 2.0118-1.9667 0.14406 0.01187 0.62122-0.11093 1.0524-0.2535 0.6481-0.23805 1.247-0.271 3.4346-0.2078 1.4626 0.0525 3.0936 0.0226 3.6338-0.0793 0.53867-0.08596 1.4465-0.14223 2.0229-0.09597 0.5768 0.04637 1.5812-0.01853 2.2522-0.14197 0.6709-0.12341 1.5153-0.20006 1.8677-0.17212 0.36987 0.01346 0.98364-0.00184 1.3905-0.0498 0.4562-0.05984 1.432 0.03466 2.6085 0.2417 1.5902 0.2727 2.1362 0.30066 3.5639 0.18921 1.4286-0.12705 2.985-0.03455 10.179 0.52661 9.9969 0.78614 8.7961 0.48034 11.888 2.9375 2.2138 1.7413 2.4276 1.8876 3.5472 2.6057 0.52146 0.332 1.4879 0.94187 2.162 1.3828 0.67544 0.42503 1.3321 0.88084 1.4659 1.0205 0.1178 0.1384 0.30225 0.25 0.3826 0.2567 0.09616 0.0073 0.4012 0.2255 0.6871 0.4739 0.4363 0.38963 2.2797 1.7309 3.8684 2.8263 0.50404 0.3464 3.2423 1.9848 4.4615 2.6626 1.0184 0.5654 2.1879 1.0624 2.5884 1.0948 0.1761 0.0138 0.5514 0.15676 0.8618 0.31106 0.2936 0.15244 1.3623 0.49594 2.3736 0.75454 1.5932 0.4344 1.9766 0.4812 2.8222 0.3877 0.5536-0.06863 1.35-0.14993 1.805-0.19376 0.43905-0.04541 1.0285-0.15918 1.3112-0.26514 0.26503-0.09203 0.79187-0.22717 1.152-0.2947 0.36025-0.0676 1.1656-0.2613 1.8096-0.4515 0.62807-0.1913 1.4976-0.3794 1.9363-0.42493 0.83154-0.11057 2.8739-0.65613 3.1643-0.85867 0.1028-0.0725 0.96094-0.3258 1.8987-0.55674 2.4833-0.60716 3.0951-0.7998 3.5145-1.0078 0.2028-0.11265 0.631-0.22385 0.9402-0.26319 0.30944-0.03942 1.1699-0.3092 1.9171-0.58776 0.7655-0.293 1.4762-0.51014 1.5882-0.5011 0.11205 0.00915 0.46035-0.1084 0.76269-0.26123 0.30261-0.1532 0.61856-0.27297 0.69846-0.26673 0.30435 0.02442 5.0949-1.816 5.2401-2.0136 0.05296-0.0607 0.3342-0.15066 0.62644-0.1757 0.62046-0.0952 2.2451-0.6577 2.6048-0.9193 0.1373-0.1018 0.43724-0.2228 0.6665-0.2687 0.2295-0.04636 0.6305-0.22373 0.88365-0.3647 0.25425-0.15676 1.6896-0.7671 3.1722-1.3578 4.0129-1.5964 4.8581-2.0768 8.7508-4.988 4.8709-3.6398 6.0867-4.9286 7.1239-7.4093 0.3007-0.73375 0.69876-1.6688 0.8943-2.1046 0.1791-0.42066 0.5779-1.3723 0.8783-2.1056 0.317-0.7324 0.66285-1.43 0.7865-1.5653 0.1382-0.11804 0.2501-0.3026 0.2565-0.3826 0.00694-0.0797 0.7235-0.7799 1.5755-1.55 0.86756-0.76906 1.5664-1.4381 1.5717-1.5023 0.00366-0.04796 0.62036-0.49856 1.3699-1.0025 0.7323-0.4897 1.3664-0.9542 1.4034-1.0161 0.0371-0.06115 0.7378-0.5531 1.5866-1.0813 0.83214-0.53 1.9907-1.3075 2.5564-1.7298 0.56595-0.42212 1.2282-0.8363 1.4626-0.94655 0.7864-0.3563 4.4116-2.7416 5.431-3.5945 0.43155-0.35278 1.1187-0.87768 1.5447-1.1658 1.2958-0.87966 12.749-3.6979 12.769-1.9337 0.0354 1.7778-0.6949 2.8628-0.6689 2.939 2.1272 6.3419-4.362 7.0316-6.0025 27.471-1.5935 19.863-2.9626 36.117-3.0265 36.112-0.0802-0.00644-0.23705 0.142-0.34975 0.3428-0.1278 0.1831-0.62547 0.9652-1.1212 1.7156-0.4968 0.7661-1.2311 1.884-1.603 2.4991-0.3876 0.61367-0.80556 1.1928-0.9251 1.28-0.1197 0.08679-0.2259 0.20725-0.2323 0.28745-0.0094 0.1122-0.55563 0.89065-1.2745 1.8162-1.2228 1.5786-1.869 2.3971-2.0779 2.5902-0.3501 0.3428-1.8136 2.7079-2.1117 3.4095-0.1401 0.34386-0.3541 0.79346-0.5001 1.0075-0.14734 0.2302-0.2654 0.4945-0.27173 0.5752-0.01417 0.17577-1.4606 2.7363-1.9548 3.4702-0.14623 0.2145-0.53393 0.828-0.86853 1.3815-0.33447 0.55359-0.8451 1.286-1.1149 1.6356-0.28589 0.3479-0.63269 0.8519-0.80127 1.1446-0.15137 0.27796-0.51661 0.81286-0.80467 1.1931-0.28835 0.37954-0.7787 1.0658-1.0752 1.5415-0.3121 0.47474-0.78645 1.1625-1.0736 1.5261-0.44664 0.5443-1.1431 1.5851-2.0661 3.042-0.5364 0.86023-2.787 4.8069-2.796 4.9191-0.00635 0.07996-0.11415 0.2162-0.25035 0.30225-0.1372 0.10169-0.30336 0.36255-0.385 0.58155-0.06655 0.22033-0.6155 1.2402-1.2141 2.2723-0.61497 1.0307-1.163 2.0346-1.2422 2.2217-0.0811 0.2029-0.39345 0.678-0.69753 1.0565-0.32017 0.37781-0.69567 0.83142-0.83897 1.0133-0.5027 0.63659-1.2355 1.5291-1.876 2.2836-0.3406 0.42396-0.92956 1.1342-1.2882 1.5891-0.343 0.4561-0.86255 1.1076-1.1316 1.4404-0.2684 0.33301-0.6648 0.84935-0.8655 1.1396-0.8763 1.2842-2.6583 3.8009-3.1273 4.4247-0.28857 0.3795-0.70336 0.927-0.90374 1.217-0.36402 0.51906-1.4024 1.8058-1.8428 2.2706-0.12245 0.11902-0.68764 0.73485-1.285 1.3476-0.5813 0.6145-1.2184 1.3208-1.4153 1.5628-0.79087 1.0176-0.97037 1.2446-1.2437 1.6418-0.1478 0.2295-0.4546 0.6406-0.68724 0.928-0.2157 0.2729-0.72826 1.0378-1.1358 1.6987-0.4994 0.79786-1.1217 1.5222-1.8845 2.1863-1.4706 1.2524-2.5253 1.5383-5.5696 1.5036-1.1426-0.02685-2.2112 0.03225-2.3939 0.09815-0.16763 0.08324-0.78589 0.1465-1.3515 0.1655-1.2594 0.02785-3.4029 0.4202-3.7798 0.69606-0.15334 0.10084-0.63295 0.25564-1.0758 0.34914-3.3079 0.6372-4.2812 0.9138-5.5043 1.4929-1.5741 0.7278-5.1372 2.1348-6.3249 2.4751-3.4666 1.0115-4.581 1.0344-5.5586 0.16626-0.60096-0.54809-1.0891-1.6995-1.0297-2.4361 0.04455-0.56076-0.4397-1.7607-0.8115-1.9519-0.1227-0.0742-1.5569-0.28636-3.1853-0.48094-3.1614-0.38232-6.6708-1.0513-8.1136-1.554-0.48635-0.1682-1.135-0.3169-1.4236-0.3401-1.0252-0.08225-2.4602-1.0842-3.6778-2.5842-0.6322-0.76-1.1404-1.4619-1.1338-1.542 0.00796-0.0957-0.20434-0.4675-0.46304-0.8591-0.24436-0.3743-0.5594-0.8672-0.6721-1.0696-0.1129-0.2024-0.56347-1.0127-1.0008-1.7893-1.3391-2.3966-1.589-2.9006-1.8822-3.6658-0.10385-0.31456-0.43655-1.1962-0.7323-1.9287-0.27868-0.7483-0.51405-1.4279-0.50625-1.5242 0.01406-0.17578-0.81064-2.3541-1.4797-3.8588-0.21766-0.50097-0.7279-1.7836-1.1274-2.8312-0.41535-1.0485-0.87125-2.198-1.0058-2.531-0.35485-0.80226-0.26065-1.9716 0.27285-3.2026 0.4586-1.0918 1.2691-2.5584 1.6031-2.9024 0.24643-0.25405 1.9365-3.0364 2.9518-4.8412 0.37695-0.6791 0.75268-1.342 0.84275-1.4644 0.0906-0.12144 0.4251-0.67517 0.7439-1.2295 0.3185-0.55515 0.6906-1.1702 0.82045-1.3852 0.14625-0.2142 0.56885-0.8573 0.95535-1.4551 0.3696-0.58264 0.8977-1.3467 1.1665-1.6797 0.98374-1.2104 1.4984-2.201 1.5786-3.0006 0.11047-0.97449-0.1013-1.346-1.579-2.8189-1.0164-1.0008-1.6151-1.3714-3.3251-1.9599-0.89354-0.31333-4.3509-0.43018-4.9836-0.17419-0.2842 0.12216-1.5077 0.50781-2.7292 0.86146-1.2226 0.36925-2.7613 0.85857-3.3926 1.0979-0.64847 0.23827-1.3444 0.47215-1.5576 0.51976-0.21325 0.04764-0.81579 0.32154-1.338 0.60218-1.3152 0.71643-1.3817 0.74316-3.529 1.5867-2.5311 1.0059-3.0149 1.2088-3.5064 1.5079-0.28774 0.17041-1.3758 0.47021-2.8858 0.80056-0.54165 0.11753-1.164 0.2447-1.3949 0.307-0.68935 0.15465-3.4601 1.3347-3.9729 1.6968-0.273 0.1875-0.8654 0.54294-1.3028 0.76584-0.45424 0.23807-1.094 0.5734-1.4486 0.7703-1.5515 0.85974-2.2782 1.2684-2.448 1.3839-0.08704 0.0735-0.35608 0.2129-0.58899 0.3069-0.21741 0.0957-0.72669 0.4094-1.1044 0.7015-0.7189 0.523-1.7033 1.1374-2.6962 1.6538-1.4294 0.73976-2.0757 1.1557-2.8821 1.768-1.3088 1.0394-3.2483 2.3022-5.0039 3.2899-1.7041 0.9436-2.9331 1.7964-4.8793 3.3491-0.6715 0.5264-1.783 1.3239-2.4808 1.784-4.6087 2.9834-6.304 4.2168-6.3341 4.602-0.01721 0.20824-2.1562 1.5519-2.887 1.8155-0.4158 0.16004-1.1791 0.4375-1.6942 0.62197-0.5142 0.18455-1.0585 0.33433-1.1866 0.32396-0.12795-0.01026-0.63585 0.09414-1.1311 0.23181-1.9798 0.56653-4.8448 0.3042-6.4194-0.56357-2.3607-1.3179-3.3553-4.7992-1.9532-6.7986 0.56469-0.80946 1.9458-2.1493 2.7436-2.6498 0.3396-0.21435 1.285-0.9447 2.0958-1.6051 0.82676-0.65905 1.9127-1.5392 2.4131-1.9506 0.5181-0.42604 1.3324-1.1345 1.7888-1.5973 0.47255-0.46191 1.3695-1.196 1.9995-1.613 0.63124-0.4332 1.7655-1.3097 2.527-1.9576 0.74416-0.6336 1.8622-1.5111 2.4762-1.9294 1.0082-0.70898 2.4686-1.8329 3.5918-2.7748 0.2431-0.2062 0.65164-0.4799 0.9032-0.60476 0.2532-0.14114 0.5646-0.40604 0.6935-0.60547 0.5873-0.88767 2.4436-3.1248 3.1431-3.8102 2.3058-2.2175 5.473-4.72 6.8682-5.4302 1.3444-0.68224 4.73-3.2965 8.9003-6.8468 2.5962-2.2097 3.4347-2.8196 5.2162-3.7246 0.23464-0.11024 0.98364-0.40504 1.6621-0.62439 3.0664-1.0434 3.826-1.4663 3.8773-2.1068 0.0206-0.25647-0.05226-0.55249-0.17287-0.65869-0.35876-0.35135-1.5564-0.49595-3.0344-0.35669-0.7966 0.08081-2.1835 0.08274-3.0962 0.00964-0.89695-0.07214-1.8314-0.0831-2.0631-0.00464-0.2312 0.06204-1.2356 0.12684-2.2367 0.14304-1.0005 0.0165-2.4762 0.1237-3.2593 0.2383-0.79784 0.0968-1.7222 0.16834-2.0748 0.14015-0.3524-0.02869-1.1959 0.03259-1.8987 0.15395-0.68577 0.10593-2.216 0.2894-3.3685 0.39036-2.2893 0.20344-2.9898 0.29168-3.7458 0.47334-0.28005 0.0741-1.1656 0.26085-1.9698 0.43834-0.8191 0.16006-1.7082 0.39526-2.0082 0.51611-0.28294 0.10608-0.80934 0.24121-1.1521 0.29445-1.466 0.1887-3.364 0.5361-3.6479 0.65843-0.16786 0.08327-0.8683 0.17227-1.5328 0.21521-0.67932 0.02613-1.4779 0.13956-1.7756 0.2284-0.2822 0.1062-0.90306 0.20141-1.3403 0.23146-0.48573 0.0249-1.5923 0.3556-2.7414 0.81126-1.201 0.50024-2.2746 0.81704-2.8908 0.86464-0.56825 0.0509-2.3634-0.0767-4.393-0.30434-3.3401-0.36476-3.4669-0.39096-4.3772-0.89941-1.1245-0.65455-2.0852-1.9408-2.4995-3.4088-0.28857-1.0228-0.2937-1.362-0.02258-2.1299v-0.00185zm93.462 47.949c0.2543 0.64904 0.52457 1.2998 0.5945 1.4341 0.4525 0.98765 0.7721 2.029 0.829 2.7265 0.09496 1.4263 0.5808 2.2073 1.8589 2.9545 1.2149 0.7262 2.4392 1.34 2.6638 1.358 0.1117 0.00891 0.6611 0.19836 1.1904 0.43433 1.0451 0.43847 1.7032 1.0719 2.3661 2.2528 0.8577 1.5686 1.9301 3.0737 2.2587 3.1963 0.8619 0.31128 1.6191-0.28882 2.7502-2.1328 0.7056-1.1524 1.998-2.1932 4.2775-3.4776 0.3706-0.1958 1.6433-1.1899 2.8346-2.1747 1.1913-0.98447 2.4296-1.9488 2.7504-2.133 1.2502-0.7056 2.183-1.0822 2.5512-1.0531 0.9292 0.0747 1.3947-0.09695 1.8423-0.65823 0.2516-0.31787 0.51417-0.78017 0.5991-1.0319 0.1121-0.3939 0.3379-0.7947 1.5425-2.7457 0.1642-0.2444 0.48963-0.6863 0.73866-0.97207 0.24841-0.28663 0.62314-0.74013 0.82287-1.0143 0.19937-0.27465 0.72157-0.95788 1.1709-1.5346 1.0211-1.2723 2.7201-3.7639 2.7368-3.972 0.00781-0.09619 0.13281-0.24696 0.26989-0.34886 0.42762-0.30434 0.49136-2.1051 0.10536-3.1194-0.28004-0.73194-1.4517-2.4056-2.6878-3.875-0.2074-0.2261-0.73401-0.89746-1.1722-1.4646-0.4377-0.5674-1.4148-1.6611-2.1429-2.4288-0.7455-0.75317-1.4131-1.4677-1.4859-1.5698-0.61499-0.77504-3.7999-3.4812-4.6656-3.9378-0.6327-0.3572-1.5812-0.3849-2.0424-0.06704-0.22084 0.14368-1.0334 0.62671-1.8097 1.0641-0.77744 0.43675-1.4884 0.86365-1.6072 0.93505-1.025 0.72376-2.1415 1.3756-2.9435 1.7304-0.53444 0.2312-1.0888 0.5094-1.2418 0.61011-0.13866 0.11754-0.33896 0.19824-0.41896 0.19189-0.3684-0.02978-3.0974 2.0404-4.1871 3.1622-0.1411 0.14964-0.59804 0.6129-1.0008 1.0155-0.73669 0.74694-1.6642 2.0594-1.6912 2.3957-0.0314 0.38426-2.3252 4.2627-3.2066 5.4013-0.37745 0.4858-0.68715 0.92845-0.69251 0.9923-0.00344 0.0482-0.20424 0.3384-0.42064 0.6272-0.23414 0.30395-0.8988 1.1533-1.4912 1.9119-1.7793 2.2757-2.2239 2.9978-2.2943 3.6689-0.02036 0.2562 0.17811 0.9978 0.44834 1.6482v-0.00184z"/> </g> <g fill="#d3f6ff"> <path d="m750.87 935.17-29.287-55.901q7.2478-3.7973 14.496-7.5946 14.644 27.95 29.287 55.9-7.2482 3.7977-14.496 7.5953z"/> </g> <g fill="#ffb193"> <path d="m834.12 853.96 4.6e-4 2.6e-4q2.4e-4 -7.6e-4 -4.6e-4 -2.6e-4"/> </g> <g fill="#fff"> <path d="m897.84 747.5-167.83 114.04 5.4604 10.459v2e-3q-0.0051 6e-4 -0.01013 0.0034l0.40443 0.74975v0.00195c-0.00197 0.00245-0.0038 0.0071-0.00575 0.0115l23.849 45.647v0.0019c-7.6e-4 5e-3 -0.00136 0.0121-0.00206 0.01907l4.9757 9.5039v0.0019q-0.00514 7.6e-4 -0.01026 0.00344l2.1565 4.1048 207.44-96.519-1.5e-4 -87.647c0-0.212-0.17185-0.3841-0.38425-0.3841l-76.047-1.5e-4zm-161.62 124.45q0.00596 0.01136 0.01207 0.02295l-0.02173 0.00195c0.00316-0.0095 0.00636-0.0172 0.00966-0.0249z"/> </g> <g fill="#ffb193"> <path d="m672.91 972.07 1.5129 0.62636q3.0524 1.2489 5.7757 2.5442 2.7229 1.295 4.6771 2.6972 0.96324 0.70336 1.6522 1.4451 0.7965 0.9514 0.8324 1.1091 0.8224 1.3972 0.6339 3.0142-0.2662 1.8086-1.6401 3.1201-1.1974 0.9817-1.5384 1.0579-0.47805 0.2541-1.4096 0.478-0.8455 0.17994-1.7826 0.18726-0.42506 0.0857-2.9712-0.27956-3.1559-0.62815-6.5592-1.7222l0.8169-14.278"/> <path d="m556.37 839.1 2.5e-4 1.4e-4 -2.5e-4 -1.4e-4"/> <path d="m709.69 986.41-2.9211 1.0227c-8.7996 3.0938-14.862 4.939-18.176 5.5896-1.3828 0.2717-2.5964 0.4668-3.651 0.5322l-1.4334-0.00486c-1.3089-0.08274-2.1654-0.55104-2.5473-1.4155-0.20104-0.45506-0.25864-1.0051-0.19604-1.6401l0.17016-1.0056c0.17124-0.7102 0.41734-1.4885 0.78259-2.3162 1.1382-2.5786 2.6514-5.3831 4.4954-8.4326l20.611-11.314 2.8653 18.985z"/> </g> <g fill-opacity=".97255"> <path d="m431.72 1013c36.665-1.4807 73.295-2.9605 106.39-5.4398 13.827-1.0359 27.028-2.2454 39.352-3.7018 41.809-4.9397 73.583-12.724 105.44-20.53 0.8932-0.219 1.7945 0.32786 2.0135 1.221 0.21887 0.89305-0.32788 1.7947-1.2209 2.0136-31.867 7.8076-63.814 15.636-105.85 20.603-12.385 1.4635-25.633 2.6772-39.494 3.7154-33.164 2.4844-69.853 3.966-106.5 5.4467-0.91889 0.03684-1.6938-0.67776-1.731-1.5967-0.03705-0.91896 0.67767-1.6936 1.5965-1.731z"/> </g> </g> </svg>